<svg>
  <g transform="translate(76 82)">
    <g id="Mouth/Eating" transform="translate(2 52)">
      <g id="Om-Nom-Nom" fill="#000" opacity=".6" transform="translate(28 6)">
        <path id="Delicious" d="M16.19 10.106C16.019 4.996 11.793.797 6.295 0 9.66 1.959 11.98 5.495 11.98 9.677c0 5.668-5.473 10.568-11.803 10.568H0A13 13 0 0 0 4.392 21c5.322 0 9.821-3.153 11.294-7.486 2.475 2.156 6.177 3.525 10.314 3.525s7.84-1.37 10.314-3.525C37.787 17.847 42.286 21 47.608 21c1.552 0 3.034-.268 4.392-.756l-.177.001c-6.33 0-11.803-4.9-11.803-10.568 0-4.182 2.32-7.718 5.686-9.677-5.498.797-9.724 4.996-9.897 10.106-2.564 1.736-6.014 2.8-9.809 2.8s-7.245-1.064-9.81-2.8"/>
      </g>
      <circle id="Redish" cx="17" cy="15" r="9" fill="#FF4646" opacity=".2"/>
      <circle id="Redish" cx="91" cy="15" r="9" fill="#FF4646" opacity=".2"/>
    </g>
  </g>
</svg>
