<svg>
  <g transform="translate(76 82)">
    <g id="Mouth/Scream-Open" transform="translate(2 52)">
      <defs>
        <path id="ScreamOpen-path1" d="M34.008 15.136C35.128 29.124 38.235 40.993 53.996 41c15.762.007 18.92-11.943 19.998-25.994.087-1.13-.82-2.006-1.957-2.006-6.686 0-9.367 1.994-18.048 2s-13.232-2-17.897-2c-1.143 0-2.196.737-2.084 2.136"/>
      </defs>
      <mask id="ScreamOpen-mask1" fill="#fff">
        <use href="#ScreamOpen-path1" transform="matrix(1 0 0 -1 0 54)"/>
      </mask>
      <use id="Mouth" fill="#000" href="#ScreamOpen-path1" opacity=".7" transform="matrix(1 0 0 -1 0 54)"/>
      <rect id="Teeth" width="31" height="16" x="39" y="2" fill="#FFF" mask="url('#ScreamOpen-mask1')" rx="5"/>
      <g id="Tongue" fill="#FF4F6D" mask="url('#ScreamOpen-mask1')">
        <g id="Say-ahhhh" transform="translate(38 32)">
          <circle cx="11" cy="11" r="11"/>
          <circle cx="21" cy="11" r="11"/>
        </g>
      </g>
    </g>
  </g>
</svg>
