<svg>
  <g transform="translate(76 82)">
    <g id="Mouth/Tongue" transform="translate(2 52)">
      <defs>
        <path id="Tongue-path1" d="M29 15.609C30.41 25.23 41.062 33 54 33c12.968 0 23.646-7.817 25-18.26.101-.4-.225-1.74-2.174-1.74H31.174c-1.79 0-2.304 1.24-2.174 2.609Z"/>
      </defs>
      <mask id="Tongue-mask1" fill="#fff">
        <use href="#Tongue-path1"/>
      </mask>
      <use id="Mouth" fill="#000" href="#Tongue-path1" opacity=".7"/>
      <rect id="Teeth" width="31" height="16" x="39" y="2" fill="#FFF" mask="url('#Tongue-mask1')" rx="5"/>
      <path id="Tongue" fill="#FF4F6D" d="M65.984 23.747c.01.083.016.167.016.253v9c0 6.075-4.925 11-11 11h-1c-6.075 0-11-4.925-11-11v-9c0-.086.005-.17.016-.253A1.922 1.922 0 0 1 43 23.5c0-1.933 2.91-3.5 6.5-3.5 2.01 0 3.808.491 5 1.263 1.192-.772 2.99-1.263 5-1.263 3.59 0 6.5 1.567 6.5 3.5 0 .083-.005.165-.016.247Z"/>
    </g>
  </g>
</svg>
