<svg>
  <g transform="translate(76 82)">
    <g id="Mouth/Vomit" transform="translate(2 52)">
      <defs>
        <path id="Vomit-path1" d="M34.008 12.602c1.12 10.49 4.227 19.392 19.988 19.398 15.762.006 18.92-8.958 19.998-19.495.087-.848-.82-1.505-1.957-1.505-6.686 0-9.367 1.495-18.048 1.5S40.757 11 36.092 11c-1.143 0-2.196.552-2.084 1.602"/>
        <path id="Vomit-path2" d="M59.917 36H60a6 6 0 1 0 12 0v-5a6 6 0 0 0-6-6H42a6 6 0 0 0-6 6v7a6 6 0 1 0 12 0v-2h.083a6.002 6.002 0 0 1 11.834 0"/>
        <filter id="filter1" width="102.8%" height="105.3%" x="-1.4%" y="-2.6%" filterUnits="objectBoundingBox">
          <feOffset dy="-1" in="SourceAlpha" result="shadowOffsetInner1"/>
          <feComposite in="shadowOffsetInner1" in2="SourceAlpha" k2="-1" k3="1" operator="arithmetic" result="shadowInnerInner1"/>
          <feColorMatrix in="shadowInnerInner1" values="0 0 0 0 0 0 0 0 0 0 0 0 0 0 0 0 0 0 0.1 0"/>
        </filter>
      </defs>
      <mask id="Vomit-mask1" fill="#fff">
        <use href="#Vomit-path1" transform="matrix(1 0 0 -1 0 43)"/>
      </mask>
      <use id="Mouth" fill="#000" href="#Vomit-path1" opacity=".7" transform="matrix(1 0 0 -1 0 43)"/>
      <rect id="Teeth" width="31" height="16" x="39" y="0" fill="#FFF" mask="url('#Vomit-mask1')" rx="5"/>
      <g id="Vomit-Stuff">
        <use fill="#88C553" href="#Vomit-path2"/>
        <use filter="url('#filter1')" href="#Vomit-path2"/>
      </g>
    </g>
  </g>
</svg>
