<svg>
  <g transform="translate(76 82)">
    <g id="Eyes/Closed" opacity=".6" transform="translate(0 8)">
      <path id="Closed-Eye" d="M16.16 32.447C18.007 28.65 22.164 26 26.998 26c4.816 0 8.961 2.63 10.817 6.407.552 1.122-.233 2.04-1.024 1.36-2.451-2.107-5.932-3.423-9.793-3.423-3.74 0-7.124 1.235-9.56 3.228-.891.728-1.818-.014-1.278-1.125m58 0C76.007 28.65 80.164 26 84.998 26c4.816 0 8.961 2.63 10.817 6.407.552 1.122-.233 2.04-1.024 1.36-2.451-2.107-5.932-3.423-9.793-3.423-3.74 0-7.124 1.235-9.56 3.228-.891.728-1.818-.014-1.278-1.125" transform="matrix(1 0 0 -1 0 60)"/>
    </g>
  </g>
</svg>
