<svg>
  <g transform="translate(76 82)">
    <g id="Eyes/Happy" opacity=".6" transform="translate(0 8)">
      <path id="Squint" d="M16.16 22.447C18.007 18.65 22.164 16 26.998 16c4.816 0 8.961 2.63 10.817 6.407.552 1.122-.233 2.04-1.024 1.36-2.451-2.107-5.932-3.423-9.793-3.423-3.74 0-7.124 1.235-9.56 3.228-.891.728-1.818-.014-1.278-1.125Zm58 0C76.007 18.65 80.164 16 84.998 16c4.816 0 8.961 2.63 10.817 6.407.552 1.122-.233 2.04-1.024 1.36-2.451-2.107-5.932-3.423-9.793-3.423-3.74 0-7.124 1.235-9.56 3.228-.891.728-1.818-.014-1.278-1.125Z"/>
    </g>
  </g>
</svg>
