<svg>
  <g transform="translate(76 82)">
    <g id="Eyes/Side" opacity=".6" transform="translate(0 8)">
      <path id="Eye" d="M27.241 20.346a6 6 0 1 0 10.699 2.8 2 2 0 0 0-.125-.739 8 8 0 0 0-.144-.372 6 6 0 0 0-1.646-2.484C33.9 17.317 30.506 16 26.998 16c-4.834 0-8.991 2.649-10.838 6.447-.54 1.111.387 1.853 1.278 1.125 2.436-1.993 5.82-3.228 9.56-3.228zm58 0a6 6 0 1 0 10.699 2.8 2 2 0 0 0-.125-.739 8 8 0 0 0-.144-.372 6 6 0 0 0-1.646-2.484C91.9 17.317 88.506 16 84.998 16c-4.834 0-8.991 2.649-10.838 6.447-.54 1.111.387 1.853 1.278 1.125 2.436-1.993 5.82-3.228 9.56-3.228z"/>
    </g>
  </g>
</svg>
