<svg>
  <g id="Clothing/Graphic-Shirt" transform="translate(0 170)">
    <defs>
      <path id="react-path-1153" d="M165.624 29.268C202.76 32.138 232 63.18 232 101.052V110H32v-8.948c0-38.217 29.775-69.48 67.393-71.855A14 14 0 0 0 99 32.5C99 44.374 113.998 54 132.5 54S166 44.374 166 32.5c0-1.098-.128-2.178-.376-3.232"/>
    </defs>
    <mask id="react-mask-1154" fill="#fff">
      <use href="#react-path-1153"/>
    </mask>
    <use id="Clothes" fill="#E6E6E6" fill-rule="evenodd" href="#react-path-1153"/>
    <g id="Color/Palette/" fill="var(--avataaar-shirt-color)" fill-rule="evenodd" mask="url(#react-mask-1154)">
      <path id="Color" d="M0 0h264v110H0z"/>
    </g>
    <g id="Clothing/Graphic/Bear" fill-rule="evenodd" stroke-width="1">
      <defs>
        <path id="poly-1" d="M47.892.43v41.49H.453V.43z"/>
      </defs>
      <g id="Group-76" transform="translate(108 59)">
        <path id="Fill-74" fill="#FFF" d="M34.447 31.586c-.479 2.816-4.08 7.345-7.147 4.384-3.467-3.344 4.225-4.81 1.481-7.594-1.184-1.2-4.412-.537-6.002-.41-1.49.117-3.866.454-3.296 2.624.433 1.65 1.71.944 2.389 1.892.535.748.308 3.507-.49 4.267-1.002.956-2.189.663-3.584.05-3.192-1.4-4.677-5.312-2.575-8.216 4.155-5.741 20.067-7.059 19.224 3.003M14.985 14.724c.985-.443 2.148-.203 2.732.787.802 1.356-.357 3.173-1.975 2.956-1.707-.23-2.57-2.919-.757-3.743m17.962 1.655c-.856 3.006-5.636-.378-2.936-2.29 1.552-1.099 3.447.491 2.936 2.29m14.88 6.79c-.236-2.38-.9-4.646-2.088-6.73-.623-1.093-1.393-2.111-2.19-3.081-.3-.365-.906-1.008-1.023-1.213-.709-1.24-.638-.362-.247-1.785.616-2.243 1.947-4.08.884-6.49-.99-2.24-3.655-3.293-5.984-3.426a8.2 8.2 0 0 0-3.207.449c-1.035.368-2.001 1.64-2.9 1.9-.698.204-2.685-.46-3.441-.508-1.395-.089-2.798-.05-4.192.034-1.63.096-5.376 1.263-6.913.877-1.015-.255-2.209-1.781-3.381-2.164C11.853.61 10.467.468 9.178.954c-2.285.864-4 3.552-4.053 5.942-.028 1.255.655 2.115.79 3.25.203 1.716.437.357-.487 1.726-.47.697-1.295 1.31-1.824 1.982C.779 17.44-.28 22.732.974 27.074c3.159 10.94 13.668 15.394 24.44 14.793 9.25-.516 23.564-7.718 22.413-18.698"/>
      </g>
    </g>
  </g>
</svg>
