<svg>
  <g id="Clothing/Graphic-Shirt" transform="translate(0 170)">
    <defs>
      <path id="react-path-1153" d="M165.624 29.268C202.76 32.138 232 63.18 232 101.052V110H32v-8.948c0-38.217 29.775-69.48 67.393-71.855A14 14 0 0 0 99 32.5C99 44.374 113.998 54 132.5 54S166 44.374 166 32.5c0-1.098-.128-2.178-.376-3.232"/>
    </defs>
    <mask id="react-mask-1154" fill="#fff">
      <use href="#react-path-1153"/>
    </mask>
    <use id="Clothes" fill="#E6E6E6" fill-rule="evenodd" href="#react-path-1153"/>
    <g id="Color/Palette/" fill="var(--avataaar-shirt-color)" fill-rule="evenodd" mask="url(#react-mask-1154)">
      <path id="Color" d="M0 0h264v110H0z"/>
    </g>
    <g id="Clothing/Graphic/Cumbia" fill-rule="evenodd" stroke-width="1">
      <g id="Group" fill="#FFF" transform="translate(77 64)">
        <path id="Fill-1" d="M10.272 24.132c3.273-.559 5.73-3.554 5.18-6.788-.464-2.724-1.745-.343-2.976.853-1.335 1.298-2.45 2.574-4.536 2.054-3.607-.9-4.858-5.4-3.84-8.48a5.94 5.94 0 0 1 3.478-3.696c1.852-.746 3.204.09 4.748 1.094.289.187 1.73 1.37 1.994 1.25.462-.211.115-2.43.045-2.725-.338-1.421-1.266-2.575-2.617-3.238-3.333-1.635-7.514.489-9.64 3.055-4.884 5.897-.92 18.164 8.164 16.62"/>
        <path id="Fill-5" d="M20.283 5.038q0 .003 0 0m-1.594 12.865c.503 3.474 2.977 6.5 6.952 6.357 4.278-.155 6.056-4.098 7.008-7.486.957-3.399 2.052-7.683.664-11.093-.42-1.032-.685-2.38-1.716-1.53-1.252 1.033-1.409 4.039-1.515 5.442-.2 2.647-.781 9.97-4.108 10.944-4.179 1.222-4.048-5.847-4-7.977.04-1.896.246-3.734-.342-5.584-.313-.985-.59-2.44-1.528-1.634-1.29 1.108-1.453 3.828-1.544 5.327-.144 2.405-.214 4.842.129 7.234"/>
        <path id="Fill-7" d="M37.783 20.746c.188.412.624 1.402 1.02 1.679.944.66-.055.708.8-.059.813-.729 1.13-2.717 1.254-3.67.385-2.96-.12-6.108-.087-9.093 1.024 2.218 1.584 4.584 2.386 6.874.554 1.582 1.396 4.804 3.654 4.753 2.443-.055 2.57-3.145 2.894-4.819.461-2.37.97-4.721 1.676-7.037.092 3.91-1.427 10.995 2.108 13.92.014.013 1.432-4.15 1.467-4.406.223-1.691.083-3.444.107-5.148.051-3.597.718-8.003-.3-11.506C54.435 1.1 53.788-.03 52.354.001c-1.825.04-2.233 1.985-2.698 3.298-1.28 3.614-2.445 7.224-3.357 10.94-.548-1.68-5.339-16.421-8.789-10.901-.555.888-.315 2.218-.338 3.196-.044 1.879-.155 3.756-.196 5.635-.061 2.843-.41 5.907.808 8.577"/>
        <path id="Fill-9" d="M62.02 7.71c.72-.135 5.735-1.727 5.523-.136-.223 1.675-4.633 3.309-5.816 3.876a10.6 10.6 0 0 0-.643-3.567zm5.717-.64s-.027-.035 0 0m.122 8.341c2.272 1.22 1.287 3.417-.426 4.608-.649.45-6.53 1.802-6.513 1.663q.001.005-.004.005c.18-1.694-.257-5.018 1-6.02 1.304-1.04 4.5-.808 5.943-.256m.062-7.995c.009.022.001.002 0 0M57.944 24.26c.224.551.86 1.912 1.566 1.945.86.04.794-1.043.929-1.71 3.441 1.721 8.498-.047 10.907-3.03 2.787-3.45 1.348-8.27-2.579-9.745 2.113-1.688 4.026-5.399 1.255-7.49-2.196-1.655-5.828-1.747-8.123-.302-2.735 1.723-3.85 5.833-4.09 9.006-.255 3.382-1.158 8.125.135 11.326"/>
        <path id="Fill-11" d="M76.05 15.871c.074 2.07-.15 4.287.332 6.306.171.717.433 1.511.76 2.162.611 1.215.31 1.05 1.032.36 2.172-2.083 1.209-8.575 1.157-11.249-.041-2.078.064-4.28-.513-6.283-.162-.562-1.123-3.348-1.655-3.284-.816.098-1.376 3.93-1.423 4.693-.148 2.396.226 4.895.31 7.295"/>
        <path id="Fill-13" d="M94.748 16.43c-1.582-.137-3.622.075-5.117.557.697-1.916 1.475-4.054 2.238-5.79q.711-1.635 1.494-3.24c1.278 2.686 1.992 5.828 2.832 8.666q-.72-.13-1.447-.193m5.44.725c-.727-2.78-1.579-5.532-2.426-8.28-.538-1.743-1.13-3.911-2.6-5.168C91 .146 88.635 9.557 87.614 11.94c-.985 2.296-2.216 4.634-2.85 7.049a9.5 9.5 0 0 0-.244 3.652c.205 1.519-.004 1.741 1.294.914 1-.636 1.414-1.792 2.227-2.562.144-.136.218-.668.39-.755.188-.096 1.504.253 1.815.274 2.17.151 4.712-.218 6.715-1.054.205.842 1.627 5.962 2.977 5.773.597-.083.965-3.064.992-3.537.087-1.553-.352-3.049-.742-4.538"/>
        <path id="Fill-15" d="M109.302 3.432c-.264-1.203-.814-3.292-1.842-2.112-1.39 1.596-1.09 5.173-1.111 7.177-.015 1.451-1.552 12.062.556 11.883-.09 0 .845-1.668.98-1.922.815-1.524 1.131-2.97 1.329-4.722.365-3.237.783-7.111.088-10.304"/>
        <path id="Fill-17" d="M108.164 24.301c-2.24-2.728-6.311.658-5.041 3.374 1.729 3.7 7.331-.56 5.041-3.374"/>
        <path id="Fill-19" d="M94.898 28.545c-2.891-.738-6.297-.24-9.249-.152-3.081.092-6.16.264-9.24.357-6.568.198-13.124.092-19.692.038-12.454-.103-24.935.69-37.383.168-2.672-.112-5.545-.713-8.198-.209-.727.139-3.009.543-3.329 1.266-.336.76 1.402 1.555 2.331 1.955 2.422 1.044 5.329.858 7.9.964 2.93.12 5.887.058 8.819-.014 12.075-.297 24.089-1.343 36.18-1.165 6.976.103 13.937.038 20.912.001 3.32-.017 7 .526 10.273-.062.552-.1 3.763-.854 3.807-1.836.02-.453-2.806-1.228-3.13-1.311"/>
      </g>
    </g>
  </g>
</svg>
