<svg>
  <g id="Clothing/Graphic-Shirt" transform="translate(0 170)">
    <defs>
      <path id="react-path-1153" d="M165.624 29.268C202.76 32.138 232 63.18 232 101.052V110H32v-8.948c0-38.217 29.775-69.48 67.393-71.855A14 14 0 0 0 99 32.5C99 44.374 113.998 54 132.5 54S166 44.374 166 32.5c0-1.098-.128-2.178-.376-3.232"/>
    </defs>
    <mask id="react-mask-1154" fill="#fff">
      <use href="#react-path-1153"/>
    </mask>
    <use id="Clothes" fill="#E6E6E6" fill-rule="evenodd" href="#react-path-1153"/>
    <g id="Color/Palette/" fill="var(--avataaar-shirt-color)" fill-rule="evenodd" mask="url(#react-mask-1154)">
      <path id="Color" d="M0 0h264v110H0z"/>
    </g>
    <g id="Clothing/Graphic/Deer" fill="#FFF" fill-rule="evenodd">
      <path id="oh,-deer!" d="M76.96 16.235c.395 1.425-2.228 2.67-3.106 3.419-1.507 1.283-3.065 2.634-4.825 3.547-.748.388-1.553.703-2.362.935-1.247.357-1.104.107-1.58 1.165-.838 1.86-1.055 4.334-1.812 6.312-1.704 4.454-5.767 14.8-12.267 10.259-2.068-1.445-3.197-4.247-4.36-6.436-1.335-2.512-2.613-5.508-3.381-8.25-.375-1.336-.137-1.79-1.13-2.415-.622-.392-1.679-.493-2.383-.78-1.5-.61-2.813-1.436-4.088-2.43-1.238-.966-6.11-4.951-2.132-5.691 1.825-.34 4.217-.214 6.067-.12 2.027.102 4.073.57 5.876 1.535 1.841.987 1.301.701 3.21.15-3.322-1.126-6.649-2.998-8.884-5.781-1.207-1.503-4-7.654-1.9-9.065 2.52-1.696 2.73 5.346 3.439 6.567 1.592 2.744 4.508 3.78 7.042 5.299-1.74-1.668-3.04-3.505-3.673-5.868-.275-1.025-1.026-3.489-.519-4.486.529-1.04 1.772-1.106 2.458-.22.618.797.462 2.63.674 3.591.35 1.589.921 2.81 1.982 4.04 1.505 1.747 3.417 3.175 5.669 3.728 5.127 1.258 6.92-4.108 7.608-8.245.168-1.013-.08-2.693 1.05-3.18 1.367-.588 1.896.747 1.936 1.782.087 2.314-1.056 5.857-2.166 7.845 2.79-1.732 5.003-4.478 5.899-7.688.33-1.188.062-3.836 1.174-4.503 1.54-.924 2.029.917 1.975 2.022-.319 6.515-5.298 12.44-11.488 14.069 1.518.759 1.318.93 2.848.023.885-.525 1.845-.93 2.827-1.23 1.47-.452 3.055-.682 4.58-.817 1.22-.107 5.274-.817 5.742.917m-18.1 8.386c.86-2.138-2.496-2.216-2.822.095-.416 2.945 2.755 3.176 2.822-.095m-1.93 9.016c.659-2.196-3.526-2.112-3.896-.17-.436 2.291 3.406 1.73 3.896.17M51.702 27c2.324 0 3.272-3.065.997-3.861-2.89-1.013-3.815 3.861-.997 3.861" transform="translate(77 58)"/>
    </g>
  </g>
</svg>
