<svg>
  <g id="Clothing/Graphic-Shirt" transform="translate(0 170)">
    <defs>
      <path id="react-path-1153" d="M165.624 29.268C202.76 32.138 232 63.18 232 101.052V110H32v-8.948c0-38.217 29.775-69.48 67.393-71.855A14 14 0 0 0 99 32.5C99 44.374 113.998 54 132.5 54S166 44.374 166 32.5c0-1.098-.128-2.178-.376-3.232"/>
    </defs>
    <mask id="react-mask-1154" fill="#fff">
      <use href="#react-path-1153"/>
    </mask>
    <use id="Clothes" fill="#E6E6E6" fill-rule="evenodd" href="#react-path-1153"/>
    <g id="Color/Palette/" fill="var(--avataaar-shirt-color)" fill-rule="evenodd" mask="url(#react-mask-1154)">
      <path id="Color" d="M0 0h264v110H0z"/>
    </g>
    <g id="Clothing/Graphic/Diamond" fill-rule="evenodd" stroke-width="1">
      <g id="Diamond" fill="#FFF" transform="translate(106 60)">
        <path id="Fill-21" d="M34.78 27.737c-2.389 2.656-4.857 5.243-7.335 7.82.985-3.553 1.74-7.578 3.204-10.958.417-.962.1-1.084.927-1.493.609-.301 2.078.043 2.807.062 1.557.039 3.15.192 4.696-.05a222 222 0 0 0-4.299 4.619m-15.264 4.061c-2.699-3.282-5.384-6.568-8.658-9.317 1.289.137 2.696-.043 3.958.206 1.944.384 1.837.99 2.82 2.959 1.45 2.906 2.889 5.789 4.05 8.823-.711-.9-1.441-1.785-2.17-2.67m-9.098-12.532c.963-1.575 1.144-2.972 2.92-3.78 2.06-.939 5.3-.742 7.488-.916-1.37 1.523-3.037 3.103-3.604 5.122-.874-1.718-1.962-3.174-3.67-4.17-.215-.107 1.158 4.55 1.338 4.87-1.716-.096-3.522-.408-5.225-.092zm16.406-5.008c1.591.036 3.17.16 4.74.42-1.267 1.674-1.649 3.631-2.099 5.63-.478-2.258-2.209-4.362-3.734-6.048zm-3.498 1.074c.234-.158 4.457 5.086 5.066 5.556-3.312-.008-6.618-.17-9.926-.315 1.907-1.487 3.023-3.688 4.86-5.24m2.686 17.095c-.401 1.349-.777 2.708-1.214 4.047-1.555-4.732-3.862-9.188-6.008-13.674 3.34.088 6.676.209 10.016.256-.82 3.158-1.862 6.245-2.794 9.37m7.23-17.462c1.277 1.128 3.097 3.44 3.686 4.217a10 10 0 0 0 .179.23c.21.261.966 1.255 1.263 1.644-2.227-.226-4.545-.13-6.78-.15.498-2.054 1.104-4.012.584-6.128q.536.086 1.068.187m7.648 5.617c-2.158-2.676-4.37-7.258-7.864-8.077-3.472-.814-7.548-.454-11.074-.23-3.075.194-8.083-.204-10.795 1.593-1.393.923-2.425 3.005-2.908 4.551-.434 1.393.266 2.285-1.246 2.285-.096 0 2.504 3.673 2.81 3.962 2.272 2.14 4.444 4.202 6.457 6.597 2.835 3.374 5.405 8.338 9.145 9.736-.686-.339 2.792-2.967 3.21-3.419 2.11-2.288 4.246-4.554 6.372-6.83 1.938-2.073 4.05-4.03 5.93-6.15 1.435-1.619 1.439-2.175-.037-4.018"/>
        <path id="Fill-23" d="M6.999 12c.043.014-.909-2.045-.825-1.919-.475-.719-1.046-1.24-1.738-1.727C3.708 7.843.127 7.254 0 7c1.494 2.652 4.167 4.128 6.999 5"/>
        <path id="Fill-25" d="M22.355 7.196A6.2 6.2 0 0 0 23.15 9c.07.078.859-4.184.85-4.547C23.988 3.832 23.613 0 22.815 0c-1.337 0-.674 6.47-.459 7.196"/>
        <path id="Fill-27" d="M48.97 5c-2.992 0-9.68 5.854-8.908 9 .005.01.447-.35.35-.283l.057-.043c1.272-1.025 2.718-2.02 3.992-3.206.911-.85 1.987-1.612 2.816-2.54C47.362 7.832 49.263 5 48.97 5"/>
      </g>
    </g>
  </g>
</svg>
