<svg>
  <g id="Clothing/Graphic-Shirt" transform="translate(0 170)">
    <defs>
      <path id="react-path-1153" d="M165.624 29.268C202.76 32.138 232 63.18 232 101.052V110H32v-8.948c0-38.217 29.775-69.48 67.393-71.855A14.107 14.107 0 0 0 99 32.5C99 44.374 113.998 54 132.5 54c18.502 0 33.5-9.626 33.5-21.5 0-1.098-.128-2.178-.376-3.232Z"/>
    </defs>
    <mask id="react-mask-1154" fill="#fff">
      <use href="#react-path-1153"/>
    </mask>
    <use id="Clothes" fill="#E6E6E6" fill-rule="evenodd" href="#react-path-1153"/>
    <g id="Color/Palette/" fill="var(--avataaar-shirt-color)" fill-rule="evenodd" mask="url(#react-mask-1154)">
      <path id="Color" d="M0 0h264v110H0z"/>
    </g>
    <g id="Clothing/Graphic/Hola" fill="#FFF" fill-rule="evenodd">
      <path id="Hola" d="M74.637 16.948c1.28 5.762-.904 11.244-5.33 15.004-2.08 1.768-4.434 3.074-7.056 3.835a25.006 25.006 0 0 1-4.497.87c-1.136.111-2.784-.4-3.79-.111-1.12.321-2.559 1.865-3.757 2.362a19.85 19.85 0 0 1-2.068.727c-1.506.438-3.065.734-4.613.977-1.602.25-8.283 1.302-7.455-1.637.284-1.01 3.11-2.504 3.724-3.184.454-.502 3.145-3.364 3.019-4.295-.04-.294-1.747-1.63-2.148-2.08-.909-1.019-1.762-2.058-2.245-3.351-.829-2.216-.786-4.998-.51-7.32.688-5.804 3.566-9.659 8.602-12.55 2.855-1.637 5.96-2.538 9.205-2.934 3.956-.483 7.11-.498 10.467 1.75 4.42 2.96 7.275 6.668 8.452 11.937Zm-5.131 6.988c1.086-.3-.308-3.053-1.079-1.72-.277.48.463 1.889 1.079 1.72Zm-1.821-5.322c.088.36.434.47.748.427.75-.104.28-.981.301-1.373.04-.749.107-2.639-.172-3.32-.513-1.254-.975-1.014-1.274.214-.267 1.1.123 2.947.397 4.052Zm-1.048 4.279c.843-.498-1.38-6.176-1.868-6.988-1.892-3.145-2.504 2.431-2.794 3.81-.125.596-1.518 6.781.339 4.787.99-1.064-.558-4.602 2.243-3.78.984.29.272.207.874 1.11.22.33.458 1.5 1.206 1.06Zm-6.342-1.294c.786-1.35-2.665-.721-3.062-.697.094-1.8.445-3.623.44-5.422 0-.475.165-2.191-.958-1.381-.454.327-.298 1.83-.336 2.28-.09 1.057-.948 4.707-.108 5.56.595.603 3.693.22 4.024-.34Zm-4.799-2.44c.338-1.344-.084-4.253-1.845-4.28-.613-.008-.335.831-.487.92-1.065.621-1.528.542-2.16 1.646-2.486 4.35 3.067 7.445 4.492 1.714Zm-6.027 3.83c.761-.21.546-9.977-.331-9.983-1.51-.008-.063 4.84-.635 5.49-.17.196-1.026.015-1.25.056-1.14.212-1.89.092-2.24-.606-.312-.62.36-4.88-1.258-2.79.015.738.027 1.476.035 2.213.336.715.21 1.15-.376 1.306-.03.47.392.864.397 1.017.025.771-.484 4.231.9 4.064.885-.107.32-3.481.317-4.03 1.143.027 2.34.155 3.475.008.006.427-.288 3.603.966 3.256ZM63.837 17A18.7 18.7 0 0 1 65 18.842c-.666.057-1.332.11-2 .158.272-.668.544-1.335.837-2Zm-9.914 0c.145.423.256 3.288-1.355 2.976-.92-.177-.507-1.764-.246-2.091.55-.69.873-.448 1.601-.885Z" transform="translate(77 58)"/>
    </g>
  </g>
</svg>
