<svg>
  <g id="Clothing/Graphic-Shirt" transform="translate(0 170)">
    <defs>
      <path id="react-path-1153" d="M165.624 29.268C202.76 32.138 232 63.18 232 101.052V110H32v-8.948c0-38.217 29.775-69.48 67.393-71.855A14.107 14.107 0 0 0 99 32.5C99 44.374 113.998 54 132.5 54c18.502 0 33.5-9.626 33.5-21.5 0-1.098-.128-2.178-.376-3.232Z"/>
    </defs>
    <mask id="react-mask-1154" fill="#fff">
      <use href="#react-path-1153"/>
    </mask>
    <use id="Clothes" fill="#E6E6E6" fill-rule="evenodd" href="#react-path-1153"/>
    <g id="Color/Palette/" fill="var(--avataaar-shirt-color)" fill-rule="evenodd" mask="url(#react-mask-1154)">
      <path id="Color" d="M0 0h264v110H0z"/>
    </g>
    <g id="Clothing/Graphic/Pizza" fill-rule="evenodd" stroke-width="1">
      <g id="Group-2" fill="#FFF" transform="translate(112 59)">
        <path id="Fill-29" d="M30.933 24.391c-4.082 1.38-8.55 3.324-10.905 7.074-1.847 2.942-1.971-.455-4.55.593-2.508 1.019-1.822 5.223-2.733 7.301-.708-1.191-1.043-2.516-1.935-3.604a6.605 6.605 0 0 0 1.814-1.724c.156-.32-4.792.348-5.076.43-1.411.401-2.74.77-4.088 1.429a78.97 78.97 0 0 0 1.965-2.989c.207-.68.576-.682 1.108-.006.748.036 1.178.357 1.962.177 2.915-.667 3.843-6.223.25-5.987a93.37 93.37 0 0 0 4.253-8.802c.502 4.291 6.08 2.813 7.719.525 2.14-2.989-.604-8.662-4.484-8.112.581-1.375 1.17-2.762 1.65-4.178 1.092 1.61 3.001 2.39 4.538 3.457a18.2 18.2 0 0 1 4.163 4.006c2.386 3.14 3.793 7.007 6.215 10.052a6.982 6.982 0 0 0-1.866.358m9.006-4.388c-.632-5.757-5.15-11.601-9.44-15.176-2.55-2.125-10.24-7.385-13.306-3.34 2.472 1.071 5.2 1.33 7.65 2.489 3.32 1.572 5.922 4.16 8.168 7.055 3.137 4.045 7.97 12.283.474 14.386.518-.338.819-.709 1.228-1.308-1.007-.233-.6-1.878-.954-2.952-.412-1.25-1.21-2.467-1.884-3.582a56.639 56.639 0 0 0-3.504-5.171c-1.678-2.186-3.686-3.907-5.977-5.396-.907-.589-1.775-1.11-2.817-1.415-1.349-.394-.907.086-1.276-1.146-.232-.773-.024-1.763-.246-2.592-1.973 1.658-2.615 4.055-3.5 6.381-1.02 2.684-2.122 5.335-3.196 7.997-2.635 6.535-6.034 12.395-9.891 18.247-.672 1.02-2.165 2.95-1.09 4.174.96 1.095 2.33.306 3.386-.139 1.436-.604 3.385-2.164 4.935-1.347 1.998 1.054 1.054 4.984 4.214 4.827 3.114-.154 2.527-5.28 3.527-7.317 2.311 1.685 4.175.64 5.579-1.611 1.626-2.61 3.775-3.657 6.513-4.938 1.12-.524 3.034-1.94 4.2-2.115.966-.145 1.893.883 3.184.837 3.098-.113 4.392-4.253 4.023-6.848"/>
        <path id="Fill-31" d="M18.537 22.834c-2.425-.445-5.807-.074-6.029 3.153-.136 1.978 1.41 3.848 3.082 4.664 5.122 2.5 9.109-6.688 2.947-7.817"/>
        <path id="Fill-33" d="M28.336 19.158c-.65-.706-1.703-1.24-2.675-.993.31-.214.568-.6.864-.839-3.156-2.286-5.14 3.479-3.346 5.748 2.717 3.44 8.037-.766 5.157-3.916"/>
      </g>
    </g>
  </g>
</svg>
