<svg>
  <g id="Clothing/Graphic-Shirt" transform="translate(0 170)">
    <defs>
      <path id="react-path-1153" d="M165.624 29.268C202.76 32.138 232 63.18 232 101.052V110H32v-8.948c0-38.217 29.775-69.48 67.393-71.855A14 14 0 0 0 99 32.5C99 44.374 113.998 54 132.5 54S166 44.374 166 32.5c0-1.098-.128-2.178-.376-3.232"/>
    </defs>
    <mask id="react-mask-1154" fill="#fff">
      <use href="#react-path-1153"/>
    </mask>
    <use id="Clothes" fill="#E6E6E6" fill-rule="evenodd" href="#react-path-1153"/>
    <g id="Color/Palette/" fill="var(--avataaar-shirt-color)" fill-rule="evenodd" mask="url(#react-mask-1154)">
      <path id="Color" d="M0 0h264v110H0z"/>
    </g>
    <g id="Clothing/Graphic/Resist" fill-rule="evenodd" stroke-width="1">
      <g id="Resist" fill="#FFF" transform="translate(80 67)">
        <path id="!" d="M102.565 21.071c-3.082-.666-5.192 3.535-1.912 4.784 2.815 1.072 4.845-4.145 1.912-4.784"/>
        <path id="H" d="M101.191 18c3.657 0 2.308-5.981 2.321-7.965.014-2.137 1.545-8.596-.89-9.734-4.216-1.971-3.06 6.325-3.034 7.968.028 1.816.167 3.72-.229 5.508-.35 1.58-1.129 4.223 1.832 4.223"/>
        <path id="C" d="M96.058 1.974c-1.082-.622-2.801-.32-3.987-.374-1.349-.06-2.69-.195-4.035-.293-2.177-.16-4.956-.563-7.118-.068-1.226.28-2.338 1.225-1.761 2.608.62 1.49 2.303 1.105 3.58 1.03.585-.035 2.033-.29 2.605-.089.997.35.573-.108.801 1.067.349 1.807.14 4 .125 5.838-.026 3.174-.036 6.364-.103 9.536-.026 1.236-.44 2.632.757 3.448.998.68 2.216.225 2.733-.793.514-1.013.026-3.067-.029-4.196-.066-1.347-.136-2.676-.097-4.025.104-3.585.282-7.167.368-10.754.943.046 1.922.018 2.856.15.683.095 1.665.535 2.322.5 1.9-.1 2.694-2.587.983-3.585"/>
        <path id="A" d="M67.722 8.813c-.012-.053-.082-.644 0 0m-.037-.276c.004.025 0 .008 0 0m1.432-3.11c3.416-3.981 4.583 4.347 7.246 3.995 4.26-.564-.941-6.953-2.669-7.776-3.515-1.675-6.605.08-8.277 3.267-2.098 4-.77 6.708 3.258 8.444 1.471.635 7.04 2.528 5.53 4.959-.76 1.224-3.526 1.329-4.7 1.086-2.356-.486-1.989-2.086-3.135-3.573-1.033-1.34-3.03-.947-3.342.781-.245 1.358 1.17 3.425 2.115 4.38 2.233 2.256 6.04 2.437 8.887 1.41 4.386-1.583 4.917-5.71 1.806-8.905-1.749-1.795-3.933-2.34-6.113-3.418-2.645-1.306-2.15-2.39-.606-4.65"/>
        <path id="E" d="M58.75 20.568c-.564-4.825-.696-9.717-.78-14.563-.027-1.554.706-5.206-1.453-5.865-2.915-.89-2.528 2.692-2.467 4.164.205 4.913.842 9.789 1.071 14.696.073 1.557-.429 4.574 1.831 4.946 2.75.454 2.008-2.081 1.798-3.378"/>
        <path id="P" d="M49.472 4.68c-2.36-3.159-7.154-3.669-10.09-.758-2.072 2.054-3.377 6.92-1.416 9.403 2.124 2.691 7.355.332 8.725 3.383 1.682 3.743-2.73 5.148-5.074 2.663-.843-.894-.659-2.454-1.9-3.007-1.763-.785-2.864.928-2.517 2.359.848 3.5 4.652 5.39 8.101 5.272 3.768-.13 5.402-2.977 5.163-6.4-.33-4.735-3.985-5.476-7.99-5.998-1.698-.22-1.92-.2-1.816-1.952.128-2.118 1.37-4.567 3.991-4.063 2.106.405 2.294 3.571 4.455 3.718 3.496.239 1.256-3.433.368-4.62"/>
        <path id="M" d="M31.721 20.438c-1.337.32-2.963.098-4.327.073-1.053-.019-4.574.427-5.261-.296-.76-.8-.513-3.247-.545-4.286-.046-1.454-.404-1.67.872-2 .749-.193 1.907-.096 2.682-.131 1.515-.07 3.465.21 4.93-.088 1.37-.28 2.502-1.751 1.25-3.004-.886-.888-2.542-.411-3.631-.386-2.034.046-4.069.036-6.103.072.008-1.568-.043-3.147.079-4.71 2.847.14 5.812.881 8.659.745 1.44-.07 3.04-.992 2.31-2.73-.624-1.49-2.521-1.287-3.843-1.346-1.653-.075-3.308-.113-4.962-.17-1.224-.042-3.005-.445-4.159.107-2.362 1.13-1.55 5.01-1.485 7.112.084 2.666.085 5.268.177 7.956.084 2.433-.037 5.641 2.852 6.325 2.89.684 6.245.033 9.192.176 1.209.058 2.861.41 3.455-.996.569-1.349-.73-2.774-2.142-2.423"/>
        <path id="I" d="M8.41 5.88c2.321.5 2.942 3.014 3.02 5.149.054 1.46.183 1.373-1.003 1.74-1.19.368-2.92.169-4.139.116-2.543-.11-2.235-.278-2.284-2.945-.012-.625-.475-3.504-.108-3.91.476-.528 3.839-.203 4.514-.15m5.077 14.838c-1.29-1.504-2.586-2.94-4.034-4.286 2.158-.06 4.503-.473 5.27-2.819.648-1.982.085-5-.668-6.872-.994-2.47-3.062-4.119-5.635-4.478-1.796-.251-6.278-.673-7.62.71C-.665 4.482.352 8.623.442 10.47c.16 3.271.044 6.518-.157 9.785-.064 1.055-.582 2.787-.041 3.737.6 1.054 2.059 1.317 2.969.537.984-.844.529-1.878.468-2.961-.093-1.676.075-3.404.174-5.074 1.608 1.312 3.25 2.591 4.762 4.022 1.493 1.414 2.564 3.202 3.99 4.627 1.011 1.01 2.82 1.425 3.331-.448.44-1.608-1.571-2.951-2.451-3.977"/>
      </g>
    </g>
  </g>
</svg>
