<svg>
  <g id="Clothing/Graphic-Shirt" transform="translate(0 170)">
    <defs>
      <path id="react-path-1153" d="M165.624 29.268C202.76 32.138 232 63.18 232 101.052V110H32v-8.948c0-38.217 29.775-69.48 67.393-71.855A14.107 14.107 0 0 0 99 32.5C99 44.374 113.998 54 132.5 54c18.502 0 33.5-9.626 33.5-21.5 0-1.098-.128-2.178-.376-3.232Z"/>
    </defs>
    <mask id="react-mask-1154" fill="#fff">
      <use href="#react-path-1153"/>
    </mask>
    <use id="Clothes" fill="#E6E6E6" fill-rule="evenodd" href="#react-path-1153"/>
    <g id="Color/Palette/" fill="var(--avataaar-shirt-color)" fill-rule="evenodd" mask="url(#react-mask-1154)">
      <path id="Color" d="M0 0h264v110H0z"/>
    </g>
    <g id="Clothing/Graphic/Selena" fill-rule="evenodd" stroke-width="1">
      <g id="Selena" fill="#FFF" transform="translate(94 58)">
        <path id="Bom-Bom" d="M65.303 7.568c-.156.93-1.922 5.089-3.229 2.95-.509-.832.402-3.46.685-4.209.558-1.472.974-1.638 2.263-2.33.109 1.188.411 2.398.281 3.589m-2.984 3.319c.03.012.158.132 0 0m-.008-.007c-.006-.004 0 0 0 0M55.03 6.205c.01.008.053.042 0 0M42.555 11.16c-.207 1.22-.475 2.439-.904 3.6-.17-1.732.103-3.456 1-4.95-.01.45-.042.901-.096 1.35m-.01-2.502c-.004-.016-.159-.24 0 0M25.908 18.803c.153-1.533.768-3.017 1.906-4.044-.277 1.625-1.072 2.67-1.906 4.044m49.93-13.506c0 .637-2.06 2.335-2.574 2.803-.879.799-1.815 1.44-3.077 1.254-3.462-.51-2.09-4.206-2.641-6.481-.434-1.788-.879-1.114-2.082-1.227-1.118-.104-1.518-.656-2.682.187-2.096 1.519-3.766 3.496-4.659 5.98-.324-1.695-1.245-4.503-3.452-4.093-1.632.303-2.984 2.926-3.663 4.243-.052-1.198-.668-3.076-2.175-2.218-1.036.589-.991 3.381-1.218 4.41-.465 2.111-1.379 7.617-4.644 6.901 1.029-1.918 3.28-7.97 1.35-9.937-2.712-2.762-4.775 4.156-4.886 5.84-.08 1.205.806 3.944.329 4.692-.585.918-2.428 1.313-3.303.641-1.405-1.078-.85-2.83-.53-4.199.422-1.794.62-3.597.734-5.437.085-1.38 1.286-7.548-1.028-7.632-2.095-.075-2.309 5.138-2.458 6.563-.185 1.751-.296 3.525-.235 5.288.062 1.782.394 2.97-.297 4.643-.74 1.793-4.264 7.17-6.373 3.6 2.24-.983 4.911-5.518 3.71-8.067-1.667-3.534-5.416 1.85-5.96 3.656-.877 2.915-.491 6.722 2.864 7.671 3.493.989 6.19-2.286 7.421-5.18 1.002 1.588 2.845 1.986 4.55 1.505a5.763 5.763 0 0 0 1.89-.947c1.07-.81.444-.509 1.58-.542 3.297-.094 5.096-1.153 6.332-4.545-.015.934.343 2.36 1.598 1.849.974-.397.968-2.01 1.148-2.87.57-2.713 1.466-5.541 3.599-7.422 1.84 2.002.48 5.427 1.69 7.56 1.868 3.288 2.808-2.532 3.1-3.654.057 4.882 5.861 3.084 7.118-.157 3.3 3.515 10.234.349 8.923-4.678"/>
        <path id="Bidi" d="M69.434 15.349c-3.63 0-7.605 1.026-11.127 1.817a97.993 97.993 0 0 0-10.502 2.97c-3.871 1.339-7.812 2.554-11.59 4.122-3.276 1.36-7.508 2.353-9.512 5.416-.004.008 2.102-.088 2.272-.117 1.05-.174 1.952-.543 2.917-.956 1.747-.746 3.482-1.519 5.224-2.276 3.904-1.698 7.98-3.095 11.988-4.554 3.996-1.453 8.095-2.685 12.255-3.625 3.39-.767 7.182-.914 10.303-2.273-.118.044-.04.014.23-.091-.079.038-2.221-.433-2.458-.433m-47.317 5.476c-2.27-.998-5.477-.558-7.835-.239-2.143.29-5.496.935-6.833 1.108-1.106.14-4.406 1.04-5.01-.197-.649-1.331 2.72-5.403 3.456-6.363 3.315-4.32 7.3-9.12 12.08-11.923-.44 1.95-.825 3.918-1.227 5.876-.166.808-.95 5.164.486 5.508.59.14 1.772-2.783 1.87-3.044.823-2.19 1.012-4.71 1.391-7.002.217-1.311 1.2-4.05-.694-4.502-1.629-.389-3.836 1.727-4.923 2.619-3.282 2.692-6.127 5.947-8.787 9.22-1.31 1.613-2.615 3.234-3.714 4.997-.904 1.45-3.09 4.49-2.145 6.282 1.698 3.221 9.84.398 12.432-.032 2.045-.339 4.152-.66 6.227-.376 2.162.295 2.057 1.27 1.339 3.196-1.478 3.96-4.776 7.36-7.724 10.32-1.299 1.303-6.38 7.419-7.66 4.091-.87-2.26-.1-5.035.9-7.114.468-.973 1.089-1.861 1.577-2.824.133-.263.802-2.425.947-2.473-3.87 1.35-6.117 6.585-6.332 10.287-.102 1.741.136 4.324 1.8 5.368 1.664 1.045 3.226-.227 4.549-1.185 3.642-2.64 6.891-5.998 9.865-9.335 1.626-1.824 8.453-10.287 3.965-12.263"/>
      </g>
    </g>
  </g>
</svg>
