<svg>
  <g id="Clothing/Graphic-Shirt" transform="translate(0 170)">
    <defs>
      <path id="react-path-1153" d="M165.624 29.268C202.76 32.138 232 63.18 232 101.052V110H32v-8.948c0-38.217 29.775-69.48 67.393-71.855A14.107 14.107 0 0 0 99 32.5C99 44.374 113.998 54 132.5 54c18.502 0 33.5-9.626 33.5-21.5 0-1.098-.128-2.178-.376-3.232Z"/>
    </defs>
    <mask id="react-mask-1154" fill="#fff">
      <use href="#react-path-1153"/>
    </mask>
    <use id="Clothes" fill="#E6E6E6" fill-rule="evenodd" href="#react-path-1153"/>
    <g id="Color/Palette/" fill="var(--avataaar-shirt-color)" fill-rule="evenodd" mask="url(#react-mask-1154)">
      <path id="Color" d="M0 0h264v110H0z"/>
    </g>
    <g id="Clothing/Graphic/Skull-Outline" fill-rule="evenodd" stroke-width="1">
      <g id="Skull" fill="#FFF" transform="translate(113 59)">
        <path id="Boo!" d="M36.335 17.04c-.18 1.038-.442 2.069-.988 2.989-.72 1.211-2.026 1.707-2.783 2.818-1.193 1.752.392 4.276-.786 5.837-1.266 1.68-4.142.663-5.262 2.892-1.18 2.35.538 5.492-.943 7.83-1.47-.37-1.922-5.886-4.189-2.367-1.452 2.254-.471 3.475-2.649.235-.756-1.125-1.61-2.136-3.096-1.393-1.043.521-1.258 2.837-2.21 3.086-2.333.612-2.418-5.617-3.212-6.796-.436-.648-.842-1.032-1.617-1.277-.672-.213-1.869.215-2.425-.1-1.045-.592-1.186-2.556-1.225-3.598-.074-1.939.575-3.919.04-5.838-.451-1.612-1.887-2.603-2.357-4.183C.1 8.64 11.683 3.895 18.3 3.63c7.74-.31 19.037 4.222 18.036 13.41m1.838-5.316c-1.456-3.441-4.655-6.177-7.915-8.013a18.45 18.45 0 0 0-5.085-1.94c-1.641-.36-3.558-.123-5.125-.576C18.728.812 17.91-.048 16.356.002c-2.118.068-4.319 1.172-6.168 2.086-3.66 1.807-6.771 4.148-8.726 7.743-2.098 3.859-1.9 7.356.349 10.952 2.145 3.434-.974 8.262 2.167 11.526C5.3 33.68 6.6 32.68 7.85 33.34c.962.508.921 3.462 1.188 4.328 1.2 3.893 5.514 5.4 7.506 1.191.94 2.353 4.655 4.764 6.385 1.686 1.082 1.4 2.954 1.995 4.383.795 1.344-1.128 1.492-3.755 1.56-5.343.054-1.238-.497-2.764.454-3.658 1.047-.984 3.194-.57 4.37-1.839 1.34-1.45.789-3.146.892-4.872.104-1.746.416-1.301 1.71-2.562 2.885-2.81 3.374-7.807 1.875-11.343"/>
        <path id="Boo!" d="M14.42 28.121c2.02-1.822 1.591-7.397 1.424-9.959-.316-4.86-3.355-3.408-5.206-.38-1.4 2.29-4.766 5.994-3.257 8.876 1.202 2.296 5.18 3.136 7.039 1.463m13.37-8.847c-1.034-1.92-1.42-2.212-2.65-3.785-.791-1.011-1.9-2.802-3.404-2.442-2.582.62-1.528 6.612-1.498 8.402.024 1.358-.277 2.765.851 3.728 1.155.986 3.053.897 4.44.69 4.259-.633 4.062-3.253 2.262-6.593M19.24 31.83c-.284-.036.077-.362.12-.587.187.614.326.643-.12.587m1.045-4.31c-2.617-2.77-7.574 6.397-4.08 7.425.805.237 1.4-.363 2.155-.468 1.1-.153 2.024.487 2.973-.522 1.491-1.584.187-5.098-1.048-6.436"/>
      </g>
    </g>
  </g>
</svg>
