<svg>
  <g id="Clothing/Graphic-Shirt" transform="translate(0 170)">
    <defs>
      <path id="react-path-1153" d="M165.624 29.268C202.76 32.138 232 63.18 232 101.052V110H32v-8.948c0-38.217 29.775-69.48 67.393-71.855A14 14 0 0 0 99 32.5C99 44.374 113.998 54 132.5 54S166 44.374 166 32.5c0-1.098-.128-2.178-.376-3.232"/>
    </defs>
    <mask id="react-mask-1154" fill="#fff">
      <use href="#react-path-1153"/>
    </mask>
    <use id="Clothes" fill="#E6E6E6" fill-rule="evenodd" href="#react-path-1153"/>
    <g id="Color/Palette/" fill="var(--avataaar-shirt-color)" fill-rule="evenodd" mask="url(#react-mask-1154)">
      <path id="Color" d="M0 0h264v110H0z"/>
    </g>
    <g id="Clothing/Graphic/Skull" fill="#FFF" fill-rule="evenodd" mask="url(#react-mask-1154)">
      <path id="Fill-49" d="M65.282 19.929c-.298 2.777-5.693 4.274-7.672 2.448-.912-.842-.927-2.574-1.128-3.702-.38-2.133-.656-4.258-.751-6.423-.058-1.325-.406-2.385 1.044-2.582.883-.12 1.793.468 2.515.933 2.447 1.573 6.33 6.138 5.992 9.326m-12.4-5.853c.284 2.825 1.32 7.739-.936 10.105-2.016 2.115-6.16.018-6.783-2.473-.773-3.09 2.275-6.78 4.145-8.87.574-.641 1.844-2.412 2.836-1.82.382.228.693 2.612.737 3.058m1.44 11.03c.647-1.523 6.913 3.019 3.953 5.18-.482.352-4.16 1.465-4.864.941-1.485-1.103.43-4.964.911-6.12m19.004-7.58c-.443-15.476-20.26-19.84-30.85-11.023-4.048 3.372-6.362 7.5-6.468 12.779-.09 4.471.619 8.689 4.034 11.764 1.481 1.333 2.46 2.149 3.245 3.97.824 1.906 1.2 4.335 2.742 5.833.85.825 2.09 1.492 3.266.96 2.162-.98 1.47-3.978 2.125-5.65 2.037 4.97 7.211 6.554 8.15.25 1.031 1.819 3.726 4.2 5.7 2.21.812-.82.934-2.15 1.072-3.227.245-1.912-.18-2.664 1.355-3.975 4.039-3.45 5.773-8.672 5.63-13.891" transform="translate(77 58)"/>
    </g>
  </g>
</svg>
