<svg>
  <g id="Top/_Resources/Kurt" fill="none" transform="translate(62 85)">
    <defs>
      <filter id="filter1" width="101.5%" height="108%" x="-.8%" y="-2%" filterUnits="objectBoundingBox">
        <feOffset dy="2" in="SourceAlpha" result="shadowOffsetOuter1"/>
        <feColorMatrix in="shadowOffsetOuter1" result="shadowMatrixOuter1" values="0 0 0 0 0 0 0 0 0 0 0 0 0 0 0 0 0 0 0.16 0"/>
        <feMerge>
          <feMergeNode in="shadowMatrixOuter1"/>
          <feMergeNode in="SourceGraphic"/>
        </feMerge>
      </filter>
    </defs>
    <g id="Kurts" filter="url('#filter1')" transform="translate(5 2)">
      <path id="It!" fill="#F4F4F4" d="M66 11.111c-11.037 0-12.63-9.084-35.33-10.37C7.987-.283.816 6.449.777 11.11c.037 4.293-1.128 15.45 13.589 28.519 14.772 15.512 29.905 10.252 35.33 5.185C55.134 42.473 61.34 21.46 66 21.48s10.865 20.992 16.306 23.334c5.424 5.067 20.557 10.327 35.33-5.185 14.716-13.069 13.55-24.226 13.588-28.519-.04-4.662-7.21-11.394-29.895-10.37C78.63 2.027 77.037 11.11 66 11.11"/>
      <path id="Did" fill="#2F383B" d="M55.13 21.481c.38-7.658-12.914-15.839-27.177-15.555-14.256.299-16.111 9.453-16.306 12.963-.349 8.133 8.367 26.415 24.459 25.926 16.091-.51 18.803-18.28 19.023-23.334"/>
      <path id="Courtney" fill="#2F383B" d="M120.353 21.481c.38-7.658-12.914-15.839-27.177-15.555-14.255.299-16.11 9.453-16.305 12.963-.35 8.133 8.367 26.415 24.458 25.926 16.092-.51 18.804-18.28 19.024-23.334" transform="matrix(-1 0 0 1 197.224 0)"/>
    </g>
  </g>
</svg>
