<svg>
  <g id="Top/_Resources/Round" fill="none" transform="translate(62 85)">
    <defs>
      <filter id="filter1" width="101.6%" height="108.3%" x="-.8%" y="-2.1%" filterUnits="objectBoundingBox">
        <feOffset dy="2" in="SourceAlpha" result="shadowOffsetOuter1"/>
        <feColorMatrix in="shadowOffsetOuter1" values="0 0 0 0 0 0 0 0 0 0 0 0 0 0 0 0 0 0 0.1 0"/>
      </filter>
      <path id="Round-path1" d="M80.465 16.394C84.38 8.46 92.553 3 102 3c8.92 0 16.703 4.866 20.84 12.088q.316-.087.66-.088h8a2.5 2.5 0 1 1 0 5h-6.537A24 24 0 0 1 126 27c0 13.255-10.745 24-24 24S78 40.255 78 27c0-1.422.124-2.815.36-4.169C78.277 18.455 74.915 15 70.863 15c-3.736 0-6.887 2.94-7.42 6.83.365 1.665.558 3.395.558 5.17 0 13.255-10.745 24-24 24S16 40.255 16 27c0-2.435.363-4.785 1.037-7H10.5a2.5 2.5 0 1 1 0-5h8q.343 0 .66.088C23.297 7.866 31.08 3 40 3c9.352 0 17.455 5.35 21.416 13.155C63.493 13.039 66.949 11 70.862 11c4.013 0 7.545 2.144 9.603 5.394M40 47c11.046 0 20-8.954 20-20S51.046 7 40 7s-20 8.954-20 20 8.954 20 20 20m62 0c11.046 0 20-8.954 20-20s-8.954-20-20-20-20 8.954-20 20 8.954 20 20 20"/>
    </defs>
    <g id="Lennon-Glasses">
      <use fill="#000" filter="url('#filter1')" href="#Round-path1"/>
      <use fill="#252C2F" href="#Round-path1"/>
    </g>
  </g>
</svg>
