<svg>
  <g id="Top/_Resources/Sunglasses" fill="none" stroke-width="1" transform="translate(62 85)">
    <defs>
      <linearGradient id="react-linear-gradient-1164" x1="50%" x2="50%" y1="0%" y2="70.506%">
        <stop offset="0%" stop-color="#FFF" stop-opacity=".5"/>
        <stop offset="100%" stop-opacity=".5"/>
      </linearGradient>
      <linearGradient id="react-linear-gradient-1165" x1="50%" x2="50%" y1="0%" y2="100%">
        <stop offset="0%" stop-color="#FFF" stop-opacity=".5"/>
        <stop offset="70.506%" stop-opacity=".5"/>
      </linearGradient>
      <path id="react-path-1161" d="M47.01 6.277c2.511.024 3.698.45 4.126 3.115.433 2.7.012 5.736-.488 8.395-.762 4.06-2.031 8.04-4.984 11.007-1.555 1.564-3.452 2.81-5.47 3.66-1.071.452-2.203.778-3.334 1.026-.33.072-3.154.468-1.422.267-4.041.47-8.425.45-11.8-2.168-3.74-2.901-6.301-7.493-7.427-12.066-.66-2.676-2.044-9.076.486-11.216 2.898-2.452 30.313-2.02 30.313-2.02"/>
      <path id="react-path-1162" d="M78.92 6.275c-2.512.024-3.699.449-4.126 3.114-.434 2.7-.012 5.736.487 8.395.763 4.061 2.032 8.04 4.984 11.008 1.556 1.563 3.453 2.809 5.47 3.66 1.072.451 2.204.778 3.335 1.025.33.072 3.153.469 1.422.267 4.04.47 8.425.45 11.8-2.167 3.74-2.902 6.3-7.493 7.427-12.066.66-2.677 2.043-9.077-.486-11.217-2.898-2.451-30.314-2.02-30.314-2.02"/>
      <filter id="react-filter-1163" width="101.6%" height="110.5%" x="-.8%" y="-2.6%" filterUnits="objectBoundingBox">
        <feOffset dy="2" in="SourceAlpha" result="shadowOffsetOuter1"/>
        <feColorMatrix in="shadowOffsetOuter1" result="shadowMatrixOuter1" values="0 0 0 0 0 0 0 0 0 0 0 0 0 0 0 0 0 0 0.1 0"/>
        <feMerge>
          <feMergeNode in="shadowMatrixOuter1"/>
          <feMergeNode in="SourceGraphic"/>
        </feMerge>
      </filter>
    </defs>
    <g id="Sunglasses" filter="url(#react-filter-1163)" transform="translate(8 8)">
      <g id="shades">
        <use fill="#000" fill-opacity=".7" href="#react-path-1161"/>
        <use fill="url(#react-linear-gradient-1164)" href="#react-path-1161" style="mix-blend-mode:screen"/>
      </g>
      <g id="shades">
        <use fill="#000" fill-opacity=".7" href="#react-path-1162"/>
        <use fill="url(#react-linear-gradient-1165)" href="#react-path-1162" style="mix-blend-mode:screen"/>
      </g>
      <g id="Glasses" fill="#252C2F">
        <path id="Frame" d="M46.25 7.275c2.37.022 3.492.417 3.896 2.89.41 2.506.011 5.322-.46 7.79-.721 3.768-1.92 7.46-4.708 10.214-1.47 1.45-3.261 2.606-5.167 3.395-1.012.42-2.081.722-3.15.952-.312.067-2.979.434-1.343.248-3.817.435-7.958.418-11.146-2.012-3.532-2.692-5.952-6.952-7.015-11.196-.623-2.483-1.93-8.422.459-10.407 2.737-2.274 28.633-1.874 28.633-1.874M22.217.491c-5.44.187-9.071 1.143-11.755 6.578-4.917 9.961 3.5 24.9 12.89 28.97 10.976 4.76 23.24-.507 29.043-10.033 3.073-5.044 4.626-12.683 4.526-18.502C56.795.077 51.607-.13 45.51.034zM79.68 7.273c-2.371.022-3.492.416-3.896 2.89-.41 2.505-.012 5.322.46 7.79.72 3.767 1.919 7.459 4.708 10.213 1.47 1.45 3.261 2.606 5.167 3.396 1.012.419 2.08.722 3.15.951.312.067 2.978.435 1.343.248 3.817.436 7.958.418 11.145-2.011 3.533-2.692 5.952-6.952 7.016-11.196.623-2.483 1.93-8.422-.46-10.407-2.737-2.275-28.632-1.874-28.632-1.874M103.713.488c5.44.187 9.071 1.144 11.754 6.579 4.918 9.96-3.5 24.9-12.889 28.97-10.977 4.76-23.24-.508-29.043-10.033C70.46 20.96 68.907 13.32 69.007 7.5 69.135.074 74.323-.132 80.42.031z"/>
        <path id="Frame" d="M13.197 4.927c-3.412.191-7.31.237-10.507 1.712-3.385 1.562-3.908 5.1.36 5.587 1.92.22 3.845-.143 5.737-.481 1.55-.277 3.655-.187 5.12-.78 2.729-1.103 2.553-6.225-.71-6.038m99.538 0c3.412.191 7.31.237 10.507 1.712 3.384 1.562 3.907 5.1-.36 5.587-1.921.22-3.845-.143-5.738-.481-1.55-.277-3.654-.187-5.119-.78-2.73-1.103-2.554-6.225.71-6.038M73.11 7.013c-1.947-2.3-7.019-3.628-10.219-3.628s-8.123 1.328-10.069 3.628c-.981 1.16-1.015 2.711.686 3.438 2.118.906 4.01-.737 5.705-1.596 2.168-1.098 5.499-.978 7.506 0 1.708.833 3.586 2.502 5.704 1.596 1.701-.727 1.668-2.279.686-3.438"/>
      </g>
    </g>
  </g>
</svg>
