<svg>
  <g id="Clothing/Blazer-+-Shirt" transform="translate(0 170)">
    <defs>
      <path id="BlazerShirt-path1" d="M133.96.295c36.976 3.03 66.04 34 66.04 71.757V81H0v-8.948C0 33.952 29.592 2.765 67.045.22 67.015.593 67 .97 67 1.348c0 11.863 14.998 21.48 33.5 21.48 18.502 0 33.5-9.617 33.5-21.48 0-.353-.013-.704-.04-1.053Z"/>
    </defs>
    <g id="Shirt" transform="translate(32 29)">
      <mask id="BlazerShirt-mask1" fill="#fff">
        <use href="#BlazerShirt-path1"/>
      </mask>
      <use fill="#E6E6E6" class="CustomColor" href="#BlazerShirt-path1"/>
      <g id="Color/Palette/Black" fill="#262E33" mask="url('#BlazerShirt-mask1')">
        <path id="Color" d="M0 0h264v110H0z" transform="translate(-32 -29)"/>
      </g>
      <g id="Shadowy" fill="#000" mask="url('#BlazerShirt-mask1')" opacity=".16">
        <ellipse id="Hola" cx="40.5" cy="27.848" rx="39.635" ry="26.914" transform="translate(60 -25)"/>
      </g>
    </g>
    <g id="Blazer" transform="translate(32 28)">
      <path id="Saco" fill="#3A4C5A" d="M68.785 1.122C30.512 2.804 0 34.365 0 73.052V82h69.362C65.96 69.92 64 55.709 64 40.5c0-14.327 1.74-27.769 4.785-39.378ZM131.638 82H200v-8.948c0-38.345-29.975-69.69-67.771-71.878C135.265 12.77 137 26.194 137 40.5c0 15.209-1.96 29.42-5.362 41.5Z"/>
      <path id="Pocket-hanky" fill="#E6E6E6" d="m149 58 9.556-7.167a4 4 0 0 1 4.856.043L170 56l-21 2Z"/>
      <path id="Wing" fill="#2F4351" d="M69 0c-4 19.333-2.333 46.667 5 82H58L44 46l6-9-6-6L63 1c2.028-.63 4.028-.964 6-1Z"/>
      <path id="Wing" fill="#2F4351" d="M151 0c-4 19.333-2.333 46.667 5 82h-16l-14-36 6-9-6-6 19-30c2.028-.63 4.028-.964 6-1Z" transform="matrix(-1 0 0 1 282 0)"/>
    </g>
  </g>
</svg>
