<svg>
  <g id="Clothing/Blazer-+-Sweater" transform="translate(0 170)">
    <defs>
      <path id="BlazerSweater-path1" d="M105.192 29.052H104c-39.765 0-72 32.235-72 72V110h200v-8.948c0-39.765-32.235-72-72-72h-1.192q.191 1.475.192 3c0 13.807-12.088 25-27 25s-27-11.193-27-25q0-1.525.192-3"/>
    </defs>
    <mask id="BlazerSweater-mask1" fill="#fff">
      <use href="#BlazerSweater-path1"/>
    </mask>
    <use fill="#E6E6E6" class="CustomColor" href="#BlazerSweater-path1"/>
    <g id="Color/Palette/Black" fill="#262E33" mask="url('#BlazerSweater-mask1')">
      <path id="Color" d="M0 0h264v110H0z"/>
    </g>
    <g id="Blazer" transform="translate(32 28)">
      <path id="Saco" fill="#3A4C5A" d="M68.785 1.122C30.512 2.804 0 34.365 0 73.052V82h69.362C65.96 69.92 64 55.709 64 40.5c0-14.327 1.74-27.769 4.785-39.378M131.638 82H200v-8.948c0-38.345-29.975-69.69-67.771-71.878C135.265 12.77 137 26.194 137 40.5c0 15.209-1.96 29.42-5.362 41.5"/>
      <path id="Pocket-hanky" fill="#E6E6E6" d="m149 58 9.556-7.167a4 4 0 0 1 4.856.043L170 56z"/>
      <path id="Wing" fill="#2F4351" d="M69 0q-6 29 5 82H58L44 46l6-9-6-6L63 1q3.042-.945 6-1"/>
      <path id="Wing" fill="#2F4351" d="M151 0q-6 29 5 82h-16l-14-36 6-9-6-6 19-30q3.042-.945 6-1" transform="matrix(-1 0 0 1 282 0)"/>
    </g>
    <path id="Collar" fill="#F2F2F2" d="M156 21.539c6.772 4.597 11 11.117 11 18.349 0 7.4-4.428 14.057-11.48 18.668l-5.94-4.68-4.58.332 1-3.151-.078-.061C152.022 47.853 156 42.7 156 36.876zm-48 0c-6.772 4.597-11 11.117-11 18.349 0 7.4 4.428 14.057 11.48 18.668l5.94-4.68 4.58.332-1-3.151.078-.061C111.978 47.853 108 42.7 108 36.876z"/>
  </g>
</svg>
