<svg>
  <g id="Clothing/Hoodie" transform="translate(0 170)">
    <defs>
      <path id="Hoodie-path1" d="M108 13.07c-17.919 2.006-31.72 7.482-31.996 21.575C50.146 45.568 32 71.165 32 100.999V110h200v-9c0-29.835-18.146-55.432-44.004-66.355-.276-14.093-14.077-19.57-31.996-21.574V32c0 13.255-10.745 24-24 24s-24-10.745-24-24V13.07Z"/>
    </defs>
    <mask id="Hoodie-mask1" fill="#fff">
      <use href="#Hoodie-path1"/>
    </mask>
    <use fill="var(--avataaar-shirt-color)" class="CustomColor" href="#Hoodie-path1"/>
    <path id="Straps" fill="#F4F4F4" d="M102 61.74V110h-7V58.15a64.54 64.54 0 0 0 7 3.59Zm67-3.59V98.5a3.5 3.5 0 1 1-7 0V61.74a64.54 64.54 0 0 0 7-3.59Z" mask="url('#Hoodie-mask1')"/>
    <path id="Shadow" fill="#000" d="M90.96 12.724C75.91 15.571 65.5 21.243 65.5 32.308 65.5 52.02 98.538 68 132 68s66.5-15.98 66.5-35.692c0-11.065-10.41-16.737-25.46-19.584 9.085 3.35 14.96 8.982 14.96 18.353C188 51.469 160.179 68 132 68S76 51.469 76 31.077c0-9.37 5.875-15.003 14.96-18.353Z" mask="url('#Hoodie-mask1')" opacity=".16"/>
  </g>
</svg>
