<svg>
  <g transform="translate(76 82)">
    <path id="Eyebrow/Outline/Angry" d="M15.611 15.185c4.24-5.769 6.878-5.484 13.313-.629l.67.508C34.422 18.726 36.708 20 40 20a2 2 0 1 0 0-4c-2.066 0-3.901-1.022-7.989-4.123-.375-.285-.492-.373-.678-.513-3.76-2.837-5.959-4.077-8.695-4.372-3.684-.398-7.058 1.482-10.25 5.823a2 2 0 0 0 3.223 2.37m80.777 0c-4.24-5.769-6.877-5.484-13.312-.629l-.67.508C77.578 18.726 75.292 20 72 20a2 2 0 1 1 0-4c2.066 0 3.901-1.022 7.989-4.123.375-.285.492-.373.678-.513 3.76-2.837 5.959-4.077 8.695-4.372 3.684-.398 7.058 1.482 10.25 5.823a2 2 0 0 1-3.224 2.37" class="CustomColor" opacity=".6"/>
  </g>
</svg>
