<svg>
  <g transform="translate(76 82)">
    <path id="Eyebrow/Natural/Flat-Natural" d="M38.66 11.09c-4.998.362-9.923.086-14.918-.122-3.83-.158-7.717-.681-11.374 1.012-.7.324-4.53 2.28-4.44 3.349.07.855 3.935 2.191 4.63 2.436 3.67 1.29 7.181.896 10.954.67 4.628-.278 9.236-.074 13.861-.214 3.116-.093 7.917-.62 9.457-4.398.464-1.137.105-3.413-.36-4.657-.185-.496-.72-.683-1.125-.397-1.45 1.023-4.261 2.146-6.685 2.321m34.68 0c4.998.362 9.923.086 14.918-.122 3.83-.158 7.717-.681 11.374 1.012.7.324 4.53 2.28 4.44 3.349-.07.855-3.935 2.191-4.63 2.436-3.67 1.29-7.181.896-10.954.67-4.628-.278-9.236-.074-13.861-.214-3.116-.093-7.917-.62-9.457-4.398-.464-1.137-.105-3.413.36-4.657.185-.496.72-.683 1.125-.397 1.45 1.023 4.261 2.146 6.685 2.321" class="CustomColor" opacity=".6"/>
  </g>
</svg>
