<svg>
  <g transform="translate(76 82)">
    <path id="Eyebrow/Natural/Frown-Natural" d="M36.37 6.876c-1.97 2.905-5.546 4.64-8.738 5.684-3.943 1.29-18.552 3.38-15.112 11.348a.147.147 0 0 0 .272.002c1.153-2.645 17.465-5.123 18.973-5.704 4.445-1.709 8.393-5.49 9.162-10.543.352-2.317-.637-6.049-1.548-7.55-.11-.18-.374-.136-.43.069-.36 1.331-1.41 4.971-2.58 6.694m39.261 0c1.97 2.905 5.546 4.64 8.738 5.684 3.943 1.29 18.551 3.379 15.112 11.348a.147.147 0 0 1-.272.002c-1.153-2.645-17.465-5.123-18.973-5.704-4.445-1.709-8.393-5.49-9.162-10.543-.352-2.317.637-6.049 1.548-7.55.11-.18.374-.136.43.069.36 1.331 1.41 4.971 2.58 6.694" class="CustomColor" opacity=".6"/>
  </g>
</svg>
