<svg>
  <g transform="translate(76 82)">
    <path id="Eyebrow/Natural/Raised-Excited-Natural" d="m22.766 1.578.911-.402C28.92-.905 36.865-.033 41.723 2.299c.567.272.18 1.153-.402 1.108-14.919-1.151-24.963 8.146-28.375 14.44-.101.187-.407.208-.482.034-2.308-5.319 4.45-13.985 10.302-16.303Zm66.468 0-.911-.402C83.08-.905 75.135-.033 70.277 2.299c-.567.272-.18 1.153.402 1.108 14.919-1.151 24.963 8.146 28.375 14.44.101.187.407.208.482.034 2.308-5.319-4.45-13.985-10.302-16.303Z" class="CustomColor" opacity=".6"/>
  </g>
</svg>
