<svg>
  <g transform="translate(76 82)">
    <path id="Eyebrow/Natural/Sad-Concerned-Natural" d="m31.234 20.422-.911.402c-5.242 2.081-13.188 1.209-18.046-1.123-.567-.272-.18-1.153.402-1.108 14.919 1.151 24.963-8.146 28.375-14.44.101-.187.407-.208.482-.034 2.308 5.319-4.45 13.985-10.302 16.303Zm49.532 0 .911.402c5.242 2.081 13.188 1.209 18.046-1.123.567-.272.18-1.153-.402-1.108-14.919 1.151-24.963-8.146-28.375-14.44-.101-.187-.407-.208-.482-.034-2.308 5.319 4.45 13.985 10.302 16.303Z" class="CustomColor" opacity=".6"/>
  </g>
</svg>
