<svg>
  <g transform="translate(76 82)">
    <path id="Eyebrow/Outline/Sad-Concerned" d="M38.028 5.591c-1.48 8.389-14.09 14.18-23.238 10.432-1.015-.416-2.19.031-2.627.999-.436.968.033 2.09 1.048 2.505 11.444 4.69 26.835-2.38 28.762-13.303.183-1.039-.551-2.023-1.64-2.197-1.09-.175-2.122.525-2.305 1.564Zm35.945 0c1.48 8.389 14.09 14.18 23.238 10.432 1.014-.416 2.19.031 2.627.999.436.968-.033 2.09-1.048 2.505-11.444 4.69-26.835-2.38-28.762-13.303-.183-1.039.551-2.023 1.64-2.197 1.09-.175 2.121.525 2.305 1.564Z" class="CustomColor" opacity=".6"/>
  </g>
</svg>
