<svg>
  <g transform="translate(76 82)">
    <g id="Eyebrow/Natural/Unibrow-Natural" opacity=".6">
      <path d="M56.997 12.82q0-.005 0 0m2.559 2.805c1.892 1.101 4.717 1.734 6.315 1.94 6.277.807 12.266-1.535 18.386-2.68 5.432-1.015 11.625-1.925 16.73.91.13.072 1.162.667 1.707 1.184a.81.81 0 0 0 1.291-.224c1.325-2.726-6.402-8.594-7.865-9.153-6.627-2.528-15.176.704-21.796 2.001-3.717.728-7.462 1.252-11.115 2.29-1.31.373-2.58 1.007-3.862 1.218-.162-.224-.362-.36-.588-.352-1.17.04-2.796 3.557-.56 3.676.7.038 1.13-.312 1.357-.81" class="CustomColor"/>
      <path d="M55.003 12.79q.002-.005 0 0M15.881 7.573c6.626-2.528 15.176.705 21.796 2.001 3.716.729 7.461 1.253 11.114 2.291 1.47.418 2.887 1.165 4.33 1.274.7.053 1.106.903.635 1.435-1.545 1.74-5.586 2.7-7.626 2.962-6.278.807-12.267-1.534-18.387-2.679-5.432-1.016-11.624-1.925-16.73.91-.13.071-1.161.666-1.707 1.184a.81.81 0 0 1-1.29-.224C6.69 14 14.417 8.133 15.881 7.573m39.092 4.217c1.17.041 2.762 4.5.525 4.674-2.237.173-1.696-4.715-.525-4.674" class="CustomColor"/>
    </g>
  </g>
</svg>
