<svg>
  <g transform="translate(76 82)">
    <path id="Eyebrow/Natural/Up-Down-Natural" d="m22.766 1.578.911-.402C28.92-.905 36.865-.033 41.723 2.299c.567.272.18 1.153-.402 1.108-14.919-1.151-24.963 8.146-28.375 14.44-.101.187-.407.208-.482.034-2.308-5.319 4.45-13.985 10.302-16.303ZM86.993 12.07c5.761.773 14.746 5.795 13.994 11.607-.024.19-.312.25-.436.091-2.487-3.188-21.712-7.872-28.714-6.894-.64.09-1.063-.571-.626-.984 3.744-3.535 10.62-4.518 15.782-3.82Z" class="CustomColor" opacity=".6"/>
  </g>
</svg>
