<svg>
  <g id="Top">
    <defs>
      <path id="Hijab-path1" d="M0 0h264v280H0z"/>
      <path id="Hijab-path2" d="M66.042 77.075C71.68 45.205 99.513 21 133 21c37.555 0 68 30.445 68 68v30.751q1.313 14.705 2.456 20.603c1.377 7.104 5.694 4.761 5.694 14.866s-4.328 13.5-4.347 22.485c-.019 8.986 15.397 16.131 15.397 27.538s-7.074 65.233-77.622 65.233q-22.605 0-38.51-12.862Q105.091 267.349 106 280H59c.932-23.771-7.284-37.064-7.284-63.554S65.353 151.428 65 142q.03-.873.062-2.068A69 69 0 0 1 65 137V89c0-3.976.341-7.872.996-11.661L66 77zM132.5 53C102.4 53 78 77.4 78 107.5v23c0 30.1 24.4 54.5 54.5 54.5h1c30.1 0 54.5-24.4 54.5-54.5v-23c0-30.1-24.4-54.5-54.5-54.5z"/>
    </defs>
    <mask id="Hijab-mask1" fill="#fff">
      <use href="#Hijab-path1"/>
    </mask>
    <g id="Top/Accesories/Hijab" mask="url('#Hijab-mask1')">
      <g transform="translate(-1)">
        <mask id="Hijab-mask2" fill="#fff">
          <use href="#Hijab-path2"/>
        </mask>
        <use fill="var(--avataaar-top-color)" class="CustomColor" href="#Hijab-path2"/>
        <path id="Band" fill="#FFF" stroke="none" d="M72.074 104.96A61.4 61.4 0 0 1 71 93.5C71 59.534 98.758 32 133 32s62 27.534 62 61.5c0 3.916-.369 7.747-1.074 11.46C192.34 72.683 165.67 47 133 47s-59.341 25.683-60.926 57.96" mask="url('#Hijab-mask2')" opacity=".5"/>
        <path id="Shadows" fill="#000" stroke="none" d="M187.93 104.695A55 55 0 0 1 189 115.5v23c0 30.1-24.4 54.5-54.5 54.5h-3c-30.1 0-54.5-24.4-54.5-54.5v-23c0-3.7.369-7.312 1.07-10.805Q78 106.089 78 107.5v23c0 30.1 24.4 54.5 54.5 54.5h1c30.1 0 54.5-24.4 54.5-54.5v-23q0-1.41-.07-2.805m-73.763 102.3c6.484 4.986 21.496 6.713 38.238 3.761 16.74-2.951 30.257-9.71 34.645-16.612q.102.379.171.767c1.71 9.695-13.236 20.434-33.38 23.987-20.146 3.552-37.863-1.428-39.573-11.123a9 9 0 0 1-.101-.78m11.868 28.926c8.192 5.654 24.387 5.923 41.069-.149s28.915-16.687 31.556-26.284q.215.48.396.98c4.527 12.436-8.077 28.441-28.151 35.748s-40.017 3.147-44.544-9.29q-.181-.498-.326-1.005" mask="url('#Hijab-mask2')" opacity=".16"/>
      </g>
    </g>
  </g>
</svg>
