<svg>
  <g id="Top">
    <defs>
      <filter id="filter5" width="107.7%" height="126.7%" x="-3.8%" y="-6.7%" filterUnits="objectBoundingBox">
        <feOffset dy="2" in="SourceAlpha" result="shadowOffsetOuter1"/>
        <feColorMatrix in="shadowOffsetOuter1" result="shadowMatrixOuter1" values="0 0 0 0 0 0 0 0 0 0 0 0 0 0 0 0 0 0 0.2 0"/>
        <feMerge>
          <feMergeNode in="shadowMatrixOuter1"/>
          <feMergeNode in="SourceGraphic"/>
        </feMerge>
      </filter>
      <filter id="filter6" width="113.3%" height="113.8%" x="-6.7%" y="-3.4%" filterUnits="objectBoundingBox">
        <feOffset dy="2" in="SourceAlpha" result="shadowOffsetOuter1"/>
        <feColorMatrix in="shadowOffsetOuter1" result="shadowMatrixOuter1" values="0 0 0 0 0 0 0 0 0 0 0 0 0 0 0 0 0 0 0.2 0"/>
        <feMerge>
          <feMergeNode in="shadowMatrixOuter1"/>
          <feMergeNode in="SourceGraphic"/>
        </feMerge>
      </filter>
      <filter id="filter7" width="113.3%" height="113.8%" x="-6.7%" y="-3.4%" filterUnits="objectBoundingBox">
        <feOffset dy="2" in="SourceAlpha" result="shadowOffsetOuter1"/>
        <feColorMatrix in="shadowOffsetOuter1" result="shadowMatrixOuter1" values="0 0 0 0 0 0 0 0 0 0 0 0 0 0 0 0 0 0 0.2 0"/>
        <feMerge>
          <feMergeNode in="shadowMatrixOuter1"/>
          <feMergeNode in="SourceGraphic"/>
        </feMerge>
      </filter>
      <filter id="filter1" width="107.7%" height="115.4%" x="-3.8%" y="-3.8%" filterUnits="objectBoundingBox">
        <feOffset dy="2" in="SourceAlpha" result="shadowOffsetOuter1"/>
        <feColorMatrix in="shadowOffsetOuter1" result="shadowMatrixOuter1" values="0 0 0 0 0 0 0 0 0 0 0 0 0 0 0 0 0 0 0.2 0"/>
        <feMerge>
          <feMergeNode in="shadowMatrixOuter1"/>
          <feMergeNode in="SourceGraphic"/>
        </feMerge>
      </filter>
      <filter id="filter2" width="105%" height="110%" x="-2.5%" y="-2.5%" filterUnits="objectBoundingBox">
        <feOffset dy="2" in="SourceAlpha" result="shadowOffsetOuter1"/>
        <feColorMatrix in="shadowOffsetOuter1" result="shadowMatrixOuter1" values="0 0 0 0 0 0 0 0 0 0 0 0 0 0 0 0 0 0 0.2 0"/>
        <feMerge>
          <feMergeNode in="shadowMatrixOuter1"/>
          <feMergeNode in="SourceGraphic"/>
        </feMerge>
      </filter>
      <filter id="filter3" width="105.4%" height="110.8%" x="-2.7%" y="-2.7%" filterUnits="objectBoundingBox">
        <feOffset dy="2" in="SourceAlpha" result="shadowOffsetOuter1"/>
        <feColorMatrix in="shadowOffsetOuter1" result="shadowMatrixOuter1" values="0 0 0 0 0 0 0 0 0 0 0 0 0 0 0 0 0 0 0.2 0"/>
        <feMerge>
          <feMergeNode in="shadowMatrixOuter1"/>
          <feMergeNode in="SourceGraphic"/>
        </feMerge>
      </filter>
      <filter id="filter4" width="103.6%" height="107.4%" x="-1.8%" y="-1.9%" filterUnits="objectBoundingBox">
        <feOffset dy="2" in="SourceAlpha" result="shadowOffsetOuter1"/>
        <feColorMatrix in="shadowOffsetOuter1" result="shadowMatrixOuter1" values="0 0 0 0 0 0 0 0 0 0 0 0 0 0 0 0 0 0 0.2 0"/>
        <feMerge>
          <feMergeNode in="shadowMatrixOuter1"/>
          <feMergeNode in="SourceGraphic"/>
        </feMerge>
      </filter>
      <path id="LongHairFrida-path2" d="M0 0h264v280H0z"/>
      <path id="LongHairFrida-path1" d="M65.18 77.737c2.183-1.632 15.227-2.258 17.578-3.648.734-.434 1.303-.873 1.742-1.309.439.436 1.009.875 1.742 1.31 2.351 1.389 15.395 2.015 17.578 3.647 2.21 1.654 3.824 5.448 3.647 8.414-.212 3.56-4.106 12.052-13.795 13.03-2.114-2.353-5.435-3.87-9.172-3.87-3.737 0-7.058 1.517-9.172 3.87-9.69-.978-13.583-9.47-13.795-13.03-.176-2.966 1.437-6.76 3.647-8.414m.665 17.164.017.007-.017-.007m79.018-38.916c-.389-5.955-1.585-11.833-2.629-17.699-.281-1.579-1.81-12.286-2.5-12.286-.232 9.11-1.032 18.08-2.064 27.14-.309 2.708-.632 5.416-.845 8.134-.171 2.196.135 4.848-.397 6.972-.679 2.706-4.08 5.232-6.725 6.165-6.6 2.326-12.105-7.303-17.742-10.12-7.318-3.656-19.897-4.527-27.38.239-7.645-4.766-20.224-3.895-27.542-.239-5.637 2.817-11.142 12.446-17.742 10.12-2.645-.933-6.047-3.459-6.725-6.165-.532-2.124-.226-4.776-.397-6.972-.213-2.718-.536-5.426-.845-8.135C30.298 44.08 29.497 35.11 29.265 26c-.689 0-2.218 10.707-2.5 12.286-1.043 5.866-2.24 11.744-2.627 17.7-.4 6.119.077 12.181 1.332 18.177a165.44 165.44 0 0 0 2.049 8.541c.834 3.143-.32 9.262.053 12.488.707 6.104 3.582 18.008 6.811 23.259 1.561 2.538 3.39 4.123 5.433 6.168 1.967 1.97 2.788 5.021 4.91 7.118 3.956 3.908 9.72 6.234 15.64 6.806C65.677 143.05 74.506 146 84.5 146c9.995 0 18.823-2.95 24.135-7.457 5.919-.572 11.683-2.898 15.64-6.806 2.121-2.097 2.942-5.149 4.909-7.118 2.042-2.045 3.872-3.63 5.433-6.168 3.229-5.251 6.104-17.155 6.81-23.259.374-3.226-.78-9.345.054-12.488.75-2.828 1.45-5.676 2.05-8.54 1.254-5.997 1.73-12.06 1.332-18.179Z"/>
    </defs>
    <mask id="LongHairFrida-mask1" fill="#fff">
      <use href="#LongHairFrida-path2"/>
    </mask>
    <g id="Top/Long-Hair/Frida" mask="url('#LongHairFrida-mask1')">
      <g transform="translate(-1)">
        <path fill="var(--avataaar-hair-color)" d="M189 97.937v.229a12.008 12.008 0 0 1 9.893 10.227A16.437 16.437 0 0 0 203 97.5c0-2.13-.404-4.166-1.138-6.035A16.453 16.453 0 0 0 207 79.5c0-5.836-3.03-10.964-7.602-13.898A16.435 16.435 0 0 0 201 58.5c0-7.635-5.185-14.058-12.227-15.941.15-.998.227-2.02.227-3.059 0-11.322-9.178-20.5-20.5-20.5-2.63 0-5.143.495-7.453 1.397C157.317 15.306 151.295 12 144.5 12c-4.262 0-8.22 1.3-11.5 3.527A20.405 20.405 0 0 0 121.5 12c-6.795 0-12.817 3.306-16.547 8.397A20.448 20.448 0 0 0 97.5 19C86.178 19 77 28.178 77 39.5c0 1.04.077 2.06.227 3.059C70.185 44.442 65 50.865 65 58.5c0 2.192.427 4.284 1.203 6.197C60.75 67.39 57 73.007 57 79.5c0 5.438 2.63 10.261 6.689 13.267A16.502 16.502 0 0 0 63 97.5c0 4.175 1.55 7.987 4.107 10.893A12.008 12.008 0 0 1 77 98.166v-.23l.083.064c2.903-47.147 48.47-30.258 55.917-56.664 7.447 26.406 53.014 9.517 55.917 56.664a7.83 7.83 0 0 0 .083-.063Zm-80 82.674v4.2a16.63 16.63 0 0 1-2.5.189c-6.82 0-12.675-4.139-15.188-10.042C82.754 174.348 76 167.213 76 158.5c0-1.471.192-2.897.554-4.254C69.858 152.144 65 145.889 65 138.5c0-3.744 1.247-7.198 3.35-9.967a12.012 12.012 0 0 0 8.859 6.334c1.743 20.248 14.26 37.416 31.791 45.744Zm48 0v4.2c.815.125 1.65.189 2.5.189 6.82 0 12.675-4.139 15.188-10.042 8.558-.61 15.312-7.745 15.312-16.458 0-1.471-.192-2.897-.554-4.254C196.142 152.144 201 145.889 201 138.5c0-3.744-1.247-7.198-3.35-9.967a12.012 12.012 0 0 1-8.859 6.334c-1.743 20.248-14.26 37.416-31.791 45.744Z" class="CustomColor"/>
        <g id="Ornamentos" transform="translate(67)">
          <g id="hoja" filter="url('#filter5')" opacity=".9" transform="scale(1 -1) rotate(-20 -137.666 -331.914)">
            <path id="leaf" fill="#5DD362" d="M3.611 10S1.95 0 13 0c7.222 0 12.278 5.714 12.278 5.714s-5.417 8.572-13.722 8.572C5.056 14.286 3.61 10 3.61 10Z"/>
            <path id="leaf" fill="#42BC53" d="M25.278 5.714s-5.417 8.572-13.722 8.572c-4.334 0-6.428-1.929-7.367-3.215-2.095 1.786-2.817 3.429-2.817 3.5-.072.286-.36.429-.65.429-.072 0-.216 0-.289-.071-.36-.143-.505-.572-.36-.929.071-.214 1.877-4.143 7.366-6.714 7.944-4.143 17.839-1.572 17.839-1.572Z"/>
          </g>
          <g id="hoja" filter="url('#filter6')" transform="rotate(60 44.13 92.434)">
            <path id="leaf" fill="#5DD362" d="M15 12C15 5.9 9 0 9 0S1.7 4.3 1 13c-.7 8.7 5.8 10.7 5.8 10.7S15 20.8 15 12Z"/>
            <path id="leaf" fill="#42BC53" d="M8 29c.1 0 .2 0 .3-.1.5-.2.8-.8.6-1.3-.5-1.5-.9-2.9-1.1-4.4C10 22.2 15 18.9 15 12 15 5.9 9 0 9 0s-.4 1.1-1 3c-.2.5-5.2 13.6-.9 25.3.1.4.5.7.9.7Z"/>
          </g>
          <g id="hoja" filter="url('#filter7')" transform="rotate(-120 31.465 30.827)">
            <path id="leaf" fill="#5DD362" d="M15 12C15 5.9 9 0 9 0S1.7 4.3 1 13c-.7 8.7 5.8 10.7 5.8 10.7S15 20.8 15 12Z"/>
            <path id="leaf" fill="#42BC53" d="M8 29c.1 0 .2 0 .3-.1.5-.2.8-.8.6-1.3-.5-1.5-.9-2.9-1.1-4.4C10 22.2 15 18.9 15 12 15 5.9 9 0 9 0s-.4 1.1-1 3c-.2.5-5.2 13.6-.9 25.3.1.4.5.7.9.7Z"/>
          </g>
          <g id="Flor" filter="url('#filter1')" transform="matrix(-1 0 0 1 26 29)">
            <path fill="#4ACAD3" d="M24.424 20.956a5.168 5.168 0 0 0 .997-3.853 5.165 5.165 0 0 0-2.02-3.43c-.299-.225-.693-.41-1.141-.567.453-.141.854-.313 1.16-.527a5.206 5.206 0 0 0 1.277-7.243 5.206 5.206 0 0 0-7.242-1.277c-.306.215-.604.533-.893.911.006-.475-.033-.909-.143-1.267a5.164 5.164 0 0 0-2.532-3.07A5.169 5.169 0 0 0 9.926.25a5.207 5.207 0 0 0-3.453 6.493c.11.356.314.735.582 1.124-.448-.151-.869-.243-1.241-.25a5.206 5.206 0 0 0-5.29 5.11 5.177 5.177 0 0 0 .937 3.066 5.198 5.198 0 0 0 4.171 2.223c.373.006.796-.071 1.25-.206-.283.38-.5.75-.621 1.103a5.196 5.196 0 0 0 .662 4.68 5.171 5.171 0 0 0 2.561 1.93 5.206 5.206 0 0 0 6.61-3.225c.12-.352.178-.779.19-1.252.273.386.56.708.857.932a5.167 5.167 0 0 0 3.853.997 5.163 5.163 0 0 0 3.43-2.02Z"/>
            <path fill="#FFF" d="M11.178 8.64a1.444 1.444 0 1 1 2.763-.845c.233.763-.232 4.182-.232 4.182s-2.298-2.574-2.53-3.337Zm-2.242 5.797a1.444 1.444 0 1 1 .05-2.888c.798.014 3.905 1.513 3.905 1.513s-3.158 1.389-3.955 1.375Zm6.057-2.018s1.738-2.98 2.392-3.438a1.444 1.444 0 1 1 1.657 2.366c-.654.458-4.049 1.072-4.049 1.072Zm-3.073 6.838a1.444 1.444 0 0 1-.895-1.836c.26-.755 2.646-3.246 2.646-3.246s.345 3.432.086 4.187a1.445 1.445 0 0 1-1.837.895Zm5.32-1.96c-.638-.48-2.27-3.52-2.27-3.52s3.37.732 4.008 1.212a1.444 1.444 0 1 1-1.738 2.307Z"/>
          </g>
          <g id="Flor" filter="url('#filter2')" transform="translate(20 16)">
            <path fill="#FDB599" d="m30.526 33.098.258-2.314 2.314-.26c2.847-.319 5.11-2.116 6.054-4.81 1.066-3.042.065-6.359-2.547-8.281l-1.874-1.38.932-2.134c1.229-2.806.645-5.895-1.52-8.061-2.167-2.166-5.256-2.75-8.063-1.522l-2.133.933-1.38-1.875C20.644.786 17.327-.218 14.284.848c-2.692.943-4.49 3.207-4.809 6.054l-.26 2.313-2.313.26c-2.847.319-5.11 2.117-6.054 4.81-.938 2.676-.298 5.56 1.669 7.528a7.7 7.7 0 0 0 .877.753l1.875 1.38-.934 2.134c-1.226 2.807-.643 5.896 1.523 8.062 2.166 2.166 5.255 2.749 8.062 1.523l2.134-.934 1.38 1.875c1.917 2.61 5.24 3.612 8.283 2.547 2.693-.945 4.49-3.208 4.809-6.055Z"/>
            <path fill="#FFF" d="M22.882 25.19a1.44 1.44 0 0 1-2.782.746C19.894 25.17 20 20 20 20s-2.492 4.529-3.055 5.091a1.44 1.44 0 0 1-2.036-2.036C15.47 22.492 20 20 20 20s-5.168.106-5.936-.1a1.44 1.44 0 0 1 .745-2.782C15.577 17.324 20 20 20 20s-2.676-4.423-2.882-5.19a1.44 1.44 0 0 1 2.782-.746c.206.768.1 5.936.1 5.936s2.492-4.529 3.055-5.091a1.44 1.44 0 0 1 2.036 2.036C24.53 17.508 20 20 20 20s5.169-.106 5.936.1a1.44 1.44 0 0 1-.745 2.782C24.423 22.676 20 20 20 20s2.675 4.422 2.882 5.19Z"/>
          </g>
          <g id="Flor" filter="url('#filter3')" transform="translate(89 26)">
            <path fill="#F7D30C" d="M34.758 29.822a7.355 7.355 0 0 0 1.418-5.483 7.35 7.35 0 0 0-2.874-4.88c-.426-.321-.987-.584-1.625-.808.645-.201 1.216-.445 1.652-.75 3.342-2.34 4.158-6.964 1.817-10.307-2.34-3.342-6.964-4.157-10.306-1.817-.436.306-.86.758-1.27 1.296.008-.676-.048-1.294-.204-1.803A7.349 7.349 0 0 0 19.763.9a7.355 7.355 0 0 0-5.638-.543C10.223 1.55 8.019 5.695 9.21 9.597c.156.507.447 1.046.83 1.6-.638-.216-1.237-.346-1.768-.355-4.08-.071-7.456 3.19-7.528 7.27a7.368 7.368 0 0 0 1.334 4.363 7.397 7.397 0 0 0 5.936 3.164c.53.01 1.133-.1 1.777-.293-.4.54-.71 1.069-.883 1.57a7.395 7.395 0 0 0 .943 6.66 7.36 7.36 0 0 0 3.645 2.746c3.858 1.329 8.077-.73 9.405-4.588.173-.502.255-1.109.271-1.782.39.549.797 1.007 1.22 1.326a7.352 7.352 0 0 0 5.484 1.418 7.348 7.348 0 0 0 4.88-2.874Z"/>
            <path fill="#FFF" d="M15.908 12.295a2.055 2.055 0 1 1 3.93-1.202c.332 1.086-.33 5.95-.33 5.95s-3.269-3.662-3.6-4.748Zm-3.192 8.25a2.055 2.055 0 1 1 .072-4.11c1.135.02 5.558 2.153 5.558 2.153s-4.495 1.977-5.63 1.957Zm8.62-2.872s2.474-4.241 3.404-4.892a2.055 2.055 0 1 1 2.358 3.367c-.93.651-5.762 1.525-5.762 1.525Zm-4.373 9.731a2.055 2.055 0 0 1-1.274-2.613c.37-1.073 3.765-4.62 3.765-4.62s.492 4.886.123 5.96a2.056 2.056 0 0 1-2.614 1.273Zm7.57-2.79c-.907-.683-3.23-5.008-3.23-5.008s4.797 1.042 5.704 1.725a2.055 2.055 0 1 1-2.474 3.283Z"/>
          </g>
          <g id="Flor" filter="url('#filter4')" transform="translate(48)">
            <path fill="#FF7398" d="M54.138 31.546c1.825-6.983-5.994-12.414-8.953-14.184.514-2.934 1.672-12.561-4.468-16.116C34.612-2.288 26.924 3.45 24.6 5.394c-.2-.125-.435-.268-.703-.423C20.83 3.196 13.13-.381 7.85 4.736 2.205 10.204 5.537 18.74 6.805 21.434c-2.16 2.01-8.384 8.592-5.818 15.59.706 1.929 2.011 3.456 3.882 4.538 4.03 2.334 9.607 1.958 11.723 1.707.993 1.88 3.83 6.712 7.888 9.061 1.67.967 3.375 1.413 5.07 1.325 6.905-.358 9.916-9.995 10.67-12.912 2.861-.396 12.086-2.199 13.918-9.197Z"/>
            <path fill="#FFF" d="M27.764 25.603s3.685 8.188.354 8.71c-3.334.521-1.46-8.591-1.46-8.591s-7.112 6.007-8.15 3.028c-1.04-2.979 7.7-4.048 7.7-4.048s-7.987-4.692-5.393-6.836c2.594-2.144 6.216 6.092 6.216 6.092s1.945-8.92 4.82-7.254c2.876 1.664-3.857 7.811-3.857 7.811s8.877-.99 8.37 2.352c-.505 3.342-8.6-1.264-8.6-1.264Z"/>
          </g>
        </g>
        <g id="Arete" transform="translate(182 129)">
          <rect id="Cadenita" width="2" height="39" x="9" y="0" fill="#E6E6E6" rx="1"/>
          <path id="Rayo" fill="#9177FF" d="M20 37h-9.43L17 20H6L0 41h8.636L4 60z"/>
        </g>
      </g>
    </g>
  </g>
</svg>
