<svg>
  <g id="Top">
    <defs>
      <path id="LongHairBigHair-path1" d="M0 0h264v280H0z"/>
      <path id="LongHairBigHair-path2" d="M222.385 182.806c-5.374 5.712-10.737 9.322-10.554 15.194.317 11.889 43.608 47.051 5.169 69H16.005c-38.439-21.949 4.852-57.111 5.17-69 .182-5.872-5.18-9.482-10.555-15.194C5.247 177.094-.137 169.28.003 155c.941-29.028 31.369-26.412 31.2-46 .169-19-11.39-26.84 0-63C42.84 9.54 72.917.768 116.003.016V0l.5.008.5-.008v.016c43.086.752 73.163 9.523 84.8 45.984 11.388 36.16-.17 44 0 63-.17 19.588 30.258 16.972 31.2 46 .14 14.28-5.245 22.094-10.618 27.806m-39.501-87.481c-21.52-11.588-39.994-28.18-52.038-47.023C112.764 73.924 76.53 78.535 51.224 94.68A12 12 0 0 0 51 97v13c0 6.019 4.43 11.002 10.209 11.867 1.743 20.248 14.26 37.416 31.791 45.744V186h-4c-39.765 0-72 32.235-72 72v9h200v-9c0-39.765-32.235-72-72-72h-4v-18.389c17.53-8.328 30.048-25.496 31.791-45.744C178.57 121.002 183 116.02 183 110V97q-.001-.853-.116-1.675"/>
      <path id="LongHairBigHair-path3" d="M222.385 182.806c-5.374 5.712-10.737 9.322-10.554 15.194.317 11.889 43.608 47.051 5.169 69H16.005c-38.439-21.949 4.852-57.111 5.17-69 .182-5.872-5.18-9.482-10.555-15.194C5.247 177.094-.137 169.28.003 155c.941-29.028 31.369-26.412 31.2-46 .169-19-11.39-26.84 0-63C42.84 9.54 72.917.768 116.003.016V0l.5.008.5-.008v.016c43.086.752 73.163 9.523 84.8 45.984 11.388 36.16-.17 44 0 63-.17 19.588 30.258 16.972 31.2 46 .14 14.28-5.245 22.094-10.618 27.806M93 186h-4c-39.765 0-72 32.235-72 72v9h200v-9c0-39.765-32.235-72-72-72h-4v-46H93z"/>
    </defs>
    <mask id="LongHairBigHair-mask2" fill="#fff">
      <use href="#LongHairBigHair-path1"/>
    </mask>
    <g id="Top/Long-Hair/Big-Hair" mask="url('#LongHairBigHair-mask2')">
      <g transform="translate(-1)">
        <use id="Hair" fill="var(--avataaar-hair-color)" class="CustomColor" href="#LongHairBigHair-path2" transform="translate(16 13)"/>
        <g id="Shadow" fill="none" transform="translate(16 13)">
          <mask id="LongHairBigHair-mask1" fill="#fff">
            <use href="#LongHairBigHair-path3"/>
          </mask>
          <path id="Shadow-Mask" fill="#000" d="M30.099 115.057c-2.374 3.026-5.57 7.471-5.737 7.137 1.873-2.383 3.013-5.182 2.979-8.758.177-18.101-11.904-25.569 0-60.017.669-1.91 1.766-3.715 3.245-5.414-10.343 34.454.783 42.35.617 60.995.02 2.295-.38 4.285-1.104 6.057m172.32-67.052c1.48 1.7 2.577 3.504 3.245 5.414 10.158 29.394 2.852 39.144.6 52.617-.3.805-.069 1.754-.384 2.567-30.673-10.458-58.29-30.043-74.385-52.991-22.784 29.424-73.14 29.761-97.821 55.324.387-.544.754-1.051 1.084-1.49 22.536-29.919 73.489-29.122 96.088-61.144 15.398 24.088 41.818 44.648 71.163 55.625.301-.854.08-1.85.367-2.694 2.108-13.833 8.84-23.926.043-53.228" mask="url('#LongHairBigHair-mask1')" opacity=".16"/>
        </g>
        <path id="Light" fill="#FFF" d="M50.758 122.446c22.536-29.919 73.489-29.122 96.088-61.144 15.398 24.088 41.818 44.648 71.163 55.625.301-.854.08-1.85.367-2.694 2.155-14.144 9.144-24.378-.573-55.233-11.637-36.46-41.714-45.232-84.8-45.984l-1-.016c-43.086.768-73.163 9.54-84.8 46-11.39 36.16.169 44 0 63 .032 3.753-1.059 6.691-2.85 9.193.183.402 4.153-5.756 6.405-8.747" opacity=".1"/>
      </g>
    </g>
  </g>
</svg>
