<svg>
  <g id="Top">
    <defs>
      <path id="LongHairStraightStrand-path1" d="M0 0h264v280H0z"/>
      <path id="LongHairStraightStrand-path2" d="M8.461 88.694C8.161 89.744 8 90.854 8 92v13c0 6.019 4.43 11.002 10.209 11.867 1.743 20.248 14.26 37.416 31.791 45.744V181h-4c-15.619 0-30.076 4.973-41.875 13.423A73.888 73.888 0 0 1 0 170V74C0 33.13 33.13 0 74 0s74 33.13 74 74v96a73.888 73.888 0 0 1-4.125 24.423C132.076 185.973 117.619 181 102 181h-4v-18.389c17.53-8.328 30.048-25.496 31.791-45.744C135.57 116.002 140 111.02 140 105V92c0-1.69-.349-3.297-.979-4.755-12.956-2.188-27.542-7.476-41.872-15.75-12.132-7.004-22.503-15.237-30.48-23.743 3.427 7.908 7.577 14.836 12.45 20.783-12.676-5.523-21.306-14.403-25.892-26.639a100.37 100.37 0 0 1-1.18 2.762c-9.84 22.1-26.456 38.024-43.586 44.036Z"/>
      <path id="LongHairStraightStrand-path3" d="M65.18 77.737c2.183-1.632 15.227-2.258 17.578-3.648.734-.434 1.303-.873 1.742-1.309.439.436 1.009.875 1.742 1.31 2.351 1.389 15.395 2.015 17.578 3.647 2.21 1.654 3.824 5.448 3.647 8.414-.212 3.56-4.106 12.052-13.795 13.03-2.114-2.353-5.435-3.87-9.172-3.87-3.737 0-7.058 1.517-9.172 3.87-9.69-.978-13.583-9.47-13.795-13.03-.176-2.966 1.437-6.76 3.647-8.414m.665 17.164.017.007-.017-.007m79.018-38.916c-.389-5.955-1.585-11.833-2.629-17.699-.281-1.579-1.81-12.286-2.5-12.286-.232 9.11-1.032 18.08-2.064 27.14-.309 2.708-.632 5.416-.845 8.134-.171 2.196.135 4.848-.397 6.972-.679 2.706-4.08 5.232-6.725 6.165-6.6 2.326-12.105-7.303-17.742-10.12-7.318-3.656-19.897-4.527-27.38.239-7.645-4.766-20.224-3.895-27.542-.239-5.637 2.817-11.142 12.446-17.742 10.12-2.645-.933-6.047-3.459-6.725-6.165-.532-2.124-.226-4.776-.397-6.972-.213-2.718-.536-5.426-.845-8.135C30.298 44.08 29.497 35.11 29.265 26c-.689 0-2.218 10.707-2.5 12.286-1.043 5.866-2.24 11.744-2.627 17.7-.4 6.119.077 12.181 1.332 18.177a165.44 165.44 0 0 0 2.049 8.541c.834 3.143-.32 9.262.053 12.488.707 6.104 3.582 18.008 6.811 23.259 1.561 2.538 3.39 4.123 5.433 6.168 1.967 1.97 2.788 5.021 4.91 7.118 3.956 3.908 9.72 6.234 15.64 6.806C65.677 143.05 74.506 146 84.5 146c9.995 0 18.823-2.95 24.135-7.457 5.919-.572 11.683-2.898 15.64-6.806 2.121-2.097 2.942-5.149 4.909-7.118 2.042-2.045 3.872-3.63 5.433-6.168 3.229-5.251 6.104-17.155 6.81-23.259.374-3.226-.78-9.345.054-12.488.75-2.828 1.45-5.676 2.05-8.54 1.254-5.997 1.73-12.06 1.332-18.179Z"/>
    </defs>
    <mask id="LongHairStraightStrand-mask1" fill="#fff">
      <use href="#LongHairStraightStrand-path1"/>
    </mask>
    <g id="Top/Long-Hair/Straight-+-Strand" mask="url('#LongHairStraightStrand-mask1')">
      <g transform="translate(-1)">
        <g id="Hair" fill="none" transform="translate(59 18)">
          <mask id="LongHairStraightStrand-mask2" fill="#fff">
            <use href="#LongHairStraightStrand-path2"/>
          </mask>
          <use fill="var(--avataaar-hair-color)" class="CustomColor" href="#LongHairStraightStrand-path2"/>
        </g>
        <path id="Shadow" fill="#000" d="M59 102.419v6.419c19.945-3.088 40.59-20.448 52.046-46.18.41-.92.803-1.84 1.18-2.762 4.006 10.686 11.095 18.812 21.27 24.378a78.41 78.41 0 0 0 4.622 6.261c-12.675-5.523-21.305-14.403-25.891-26.639a101.3 101.3 0 0 1-1.18 2.762C99.59 92.39 78.944 109.75 59 112.838v-10.419Zm148-1.279v9.14c-14.953-.867-33.099-6.535-50.851-16.785-10.273-5.93-19.283-12.743-26.646-19.855a98.48 98.48 0 0 1-3.833-7.888c7.976 8.506 18.347 16.74 30.479 23.743 17.752 10.25 35.898 15.918 50.851 16.786v-5.14Z" opacity=".16"/>
      </g>
    </g>
  </g>
</svg>
