<svg>
  <g id="Top">
    <defs>
      <path id="LongHairFro-path1" d="M0 0h264v280H0z"/>
      <path id="LongHairFro-path2" d="M180.666 104.495A11.95 11.95 0 0 1 182 110v13c0 6.019-4.43 11.002-10.209 11.867-1.743 20.248-14.26 37.416-31.791 45.744v9.443c3.832 1.896 8.059 2.946 12.5 2.946 7.621 0 14.61-3.093 20.059-8.242q2.193.241 4.441.242c18.39 0 34.26-12.316 41.622-30.116C224.9 149.814 229 141.454 229 132a32 32 0 0 0-.426-5.223C230.786 120.339 232 113.33 232 106c0-12.866-3.739-24.736-10.046-34.275Q222 70.869 222 70c0-10.957-5.507-20.443-13.53-25.043-7.31-17.588-22.73-29.966-40.773-30.9C163.274 9.075 157.201 6 150.5 6q-1.427.001-2.812.182C137.91 2.196 127.211 0 116 0S94.09 2.196 84.312 6.182A22 22 0 0 0 81.5 6c-6.701 0-12.774 3.075-17.197 8.057-18.044.934-33.463 13.312-40.774 30.9C15.507 49.557 10 59.043 10 70q0 .87.046 1.725C3.739 81.265 0 93.135 0 106c0 7.331 1.214 14.34 3.426 20.777A32 32 0 0 0 3 132c0 9.454 4.1 17.814 10.378 22.884C20.74 172.684 36.61 185 55 185q2.248-.001 4.441-.242C64.889 189.907 71.879 193 79.5 193c4.441 0 8.668-1.05 12.5-2.946v-9.443c-17.53-8.328-30.048-25.496-31.791-45.744C54.43 134.002 50 129.02 50 123v-13c0-1.983.481-3.854 1.333-5.502 2.702-.802 5.677-3.053 8.658-6.33l.009-.002v-.009c6.866-7.556 13.755-20.555 17.37-33.822 11.116 1.737 24.535 2.752 38.984 2.752 14.159 0 27.33-.975 38.314-2.649 3.62 13.226 10.486 26.172 17.332 33.71v.018l.02.003c2.976 3.272 5.947 5.522 8.646 6.326"/>
      <path id="LongHairFro-path3" d="M65.18 77.737c2.183-1.632 15.227-2.258 17.578-3.648.734-.434 1.303-.873 1.742-1.309.439.436 1.009.875 1.742 1.31 2.351 1.389 15.395 2.015 17.578 3.647 2.21 1.654 3.824 5.448 3.647 8.414-.212 3.56-4.106 12.052-13.795 13.03-2.114-2.353-5.435-3.87-9.172-3.87s-7.058 1.517-9.172 3.87c-9.69-.978-13.583-9.47-13.795-13.03-.176-2.966 1.437-6.76 3.647-8.414m.665 17.164.017.007zm79.018-38.916c-.389-5.955-1.585-11.833-2.629-17.699-.281-1.579-1.81-12.286-2.5-12.286-.232 9.11-1.032 18.08-2.064 27.14-.309 2.708-.632 5.416-.845 8.134-.171 2.196.135 4.848-.397 6.972-.679 2.706-4.08 5.232-6.725 6.165-6.6 2.326-12.105-7.303-17.742-10.12-7.318-3.656-19.897-4.527-27.38.239-7.645-4.766-20.224-3.895-27.542-.239-5.637 2.817-11.142 12.446-17.742 10.12-2.645-.933-6.047-3.459-6.725-6.165-.532-2.124-.226-4.776-.397-6.972-.213-2.718-.536-5.426-.845-8.135C30.298 44.08 29.497 35.11 29.265 26c-.689 0-2.218 10.707-2.5 12.286-1.043 5.866-2.24 11.744-2.627 17.7-.4 6.119.077 12.181 1.332 18.177a165 165 0 0 0 2.049 8.541c.834 3.143-.32 9.262.053 12.488.707 6.104 3.582 18.008 6.811 23.259 1.561 2.538 3.39 4.123 5.433 6.168 1.967 1.97 2.788 5.021 4.91 7.118 3.956 3.908 9.72 6.234 15.64 6.806C65.677 143.05 74.506 146 84.5 146s18.823-2.95 24.135-7.457c5.919-.572 11.683-2.898 15.64-6.806 2.121-2.097 2.942-5.149 4.909-7.118 2.042-2.045 3.872-3.63 5.433-6.168 3.229-5.251 6.104-17.155 6.81-23.259.374-3.226-.78-9.345.054-12.488.75-2.828 1.45-5.676 2.05-8.54 1.254-5.997 1.73-12.06 1.332-18.179"/>
    </defs>
    <mask id="LongHairFro-mask1" fill="#fff">
      <use href="#LongHairFro-path1"/>
    </mask>
    <g id="Top/Long-Hair/Fro" mask="url('#LongHairFro-mask1')">
      <g transform="translate(-1)">
        <path id="Shadow" fill="#000" d="M67 109.778c9.038-1.06 21.922-20.447 27.37-40.443 11.116 1.737 24.535 2.752 38.984 2.752 14.159 0 27.33-.975 38.314-2.649 5.462 19.953 18.31 39.269 27.332 40.339V89c0-22.884-11.647-43.048-29.336-54.887-.528 2.482-.88 5.222-1.04 8.184-10.34-1.404-22.396-2.21-35.27-2.21-13.164 0-25.472.842-35.964 2.306-.158-3-.512-5.775-1.047-8.286C78.65 45.947 67 66.113 67 89z" opacity=".16"/>
        <use id="Hair" fill="var(--avataaar-hair-color)" class="CustomColor" href="#LongHairFro-path2" transform="translate(17)"/>
      </g>
    </g>
  </g>
</svg>
