<svg>
  <g id="Top">
    <defs>
      <path id="LongHairNotTooLong-path1" d="M0 0h264v280H0z"/>
      <path id="LongHairNotTooLong-path2" d="M59 102.34V182a8 8 0 0 0 8 8h42v-9.389c-17.53-8.328-30.048-25.496-31.791-45.744C71.43 134.002 67 129.02 67 123v-13c0-3.49 1.49-6.633 3.87-8.826 11.539-2.619 24.1-7.536 36.472-14.679 12.131-7.004 22.502-15.237 30.479-23.743q-5.14 11.862-12.449 20.783 19.013-8.285 25.892-26.639.565 1.383 1.18 2.762c10.256 23.035 27.874 39.36 45.762 44.745.513 2.11.794 4.08.794 5.597v13c0 6.019-4.43 11.002-10.209 11.867-1.743 20.248-14.26 37.416-31.791 45.744V190h18c17.673 0 32-14.327 32-32v-54.125q0-.1-.028-.26-.216-18.391-.612-21.39C201.577 45.977 170.556 18 133 18c-36.085 0-66.137 25.828-73 60-5.523 0-10 5.596-10 12.5 0 4.55 1.695 8.643 4.853 10.773.905.61 2.47.925 4.147 1.067"/>
    </defs>
    <mask id="LongHairNotTooLong-mask1" fill="#fff">
      <use href="#LongHairNotTooLong-path1"/>
    </mask>
    <g id="Top/Long-Hair/Long-but-not-too-long" mask="url('#LongHairNotTooLong-mask1')">
      <g transform="translate(-1)">
        <use id="Behind" fill="var(--avataaar-hair-color)" class="CustomColor" href="#LongHairNotTooLong-path2"/>
        <g id="Top" opacity=".16" transform="translate(50 18)">
          <path id="Combined-Shape" fill="#FFF" d="M11.899 84.775c13.812-1.76 29.78-7.237 45.443-16.28 12.131-7.004 22.502-15.237 30.479-23.743q-5.14 11.862-12.449 20.783 19.013-8.285 25.892-26.639.565 1.383 1.18 2.762C114.382 68.471 136.296 86.194 157 88.151V74c0-40.87-33.13-74-74-74-36.085 0-66.137 25.828-72.679 60.006A8 8 0 0 0 10 60C4.477 60 0 65.596 0 72.5c0 6.482 3.947 11.811 9 12.438v.155q.474-.044.953-.093a8.2 8.2 0 0 0 1.946-.225"/>
        </g>
      </g>
    </g>
  </g>
</svg>
