<svg>
  <g id="Top">
    <defs>
      <path id="LongHairBob-path1" d="M0 0h264v280H0z"/>
      <path id="LongHairBob-path2" d="M38 79.36V111c0 22.34 13.08 41.623 32 50.611v13.135c-19.637 2.688-35.359 7.418-46.615 6.254C9.162 179.53 1.496 150.796 1 126 .383 95.164 29.319 30.795 40 18 47.923 8.509 69.695.55 94 1c24.305.45 46.862 5.812 55 16 12.324 15.428 37.869 74.079 38 109 .094 24.8-9.537 49.66-23 51-11.08 1.103-26.524-1.489-46-3.003v-12.386c18.92-8.988 32-28.272 32-50.611V82.988c-9.521-4.857-18.137-10.74-25.846-17.647 3.208 5.296 6.695 9.807 10.46 13.532-27.018-7.58-48.508-20.423-64.473-38.528C62.16 56.81 51.446 69.815 38 79.36Z"/>
    </defs>
    <mask id="LongHairBob-mask1" fill="#fff">
      <use href="#LongHairBob-path1"/>
    </mask>
    <g id="Top/Long-Hair/Bob" mask="url('#LongHairBob-mask1')">
      <g transform="translate(-1)">
        <g id="Hair" transform="translate(39 19)">
          <mask id="LongHairBob-mask2" fill="#fff">
            <use href="#LongHairBob-path2"/>
          </mask>
          <use fill="var(--avataaar-hair-color)" class="CustomColor" href="#LongHairBob-path2"/>
        </g>
      </g>
    </g>
  </g>
</svg>
