<svg>
  <g id="Top">
    <defs>
      <path id="LongHairBun-path2" d="M0 0h264v280H0z"/>
      <path id="LongHairBun-path1" d="M114.94 28.337q-1.48.334-2.903.693c-15.092 3.808-24.02 14.621-31.68 30.618-3.761 7.855-5.991 17.143-6.334 25.833-.135 3.412.325 6.934 1.245 10.22.337 1.205 2.155 5.386 2.654 2.008.167-1.125-.442-2.676-.5-3.871-.078-1.569.005-3.157.112-4.723.2-2.928.722-5.8 1.65-8.59 1.328-3.988 3.017-8.312 5.603-11.677C91.188 60.521 95.765 43.206 133 41.671s48.749 25.79 52.183 31.63c4.065 6.914 2.195 15.406 3.436 22.9.472 2.85 1.545 2.786 2.132.237.997-4.33 1.468-8.828 1.151-13.279-.718-10.048-4.405-36.453-24.593-48.153-5.443-3.154-10.87-5.319-16.192-6.723C154.177 25.31 156 21.568 156 17.5 156 7.835 145.703 0 133 0s-23 7.835-23 17.5c0 4.092 1.846 7.857 4.94 10.837"/>
    </defs>
    <mask id="LongHairBun-mask2" fill="#fff">
      <use href="#LongHairBun-path2"/>
    </mask>
    <g id="Top/Long-Hair/Bun" mask="url('#LongHairBun-mask2')">
      <use fill="var(--avataaar-hair-color)" class="CustomColor" href="#LongHairBun-path1" transform="translate(-1)"/>
    </g>
  </g>
</svg>
