<svg>
  <g id="Top">
    <defs>
      <path id="LongHairCurly-path1" d="M0 0h264v280H0z"/>
      <path id="LongHairCurly-path2" d="M48.725 89.219A12 12 0 0 0 42 100v13c0 6.019 4.43 11.002 10.209 11.867 1.743 20.248 14.26 37.416 31.791 45.744V189h-4q-2.38 0-4.721.152a72 72 0 0 1-13.689-9.103A48 48 0 0 1 48 182c-26.51 0-48-21.49-48-48 0-14.41 6.349-27.335 16.402-36.134A43.8 43.8 0 0 1 8 72c0-21.84 15.911-39.962 36.774-43.41C51.019 11.89 67.12 0 86 0a43.8 43.8 0 0 1 22 5.886A43.8 43.8 0 0 1 130 0c18.88 0 34.981 11.89 41.226 28.59C192.09 32.039 208 50.16 208 72a43.8 43.8 0 0 1-8.402 25.866C209.65 106.665 216 119.591 216 134c0 26.51-21.49 48-48 48-4.72 0-9.281-.681-13.59-1.951a72 72 0 0 1-13.689 9.103A73 73 0 0 0 136 189h-4v-18.389c17.53-8.328 30.048-25.496 31.791-45.744C169.57 124.002 174 119.02 174 113v-13a11.99 11.99 0 0 0-5.476-10.073 24 24 0 0 1-3.235-1.47q-.63-.18-1.289-.291v-.453c-8.68-5.303-17.235-16.538-22.55-30.914C131.312 58.835 119.547 60 107 60c-11.961 0-23.212-1.059-33.02-2.921C68.756 71.064 60.465 82.043 52 87.423v.743a12 12 0 0 0-3.275 1.053"/>
    </defs>
    <mask id="LongHairCurly-mask1" fill="#fff">
      <use href="#LongHairCurly-path1"/>
    </mask>
    <g id="Top/Long-Hair/Curly" mask="url('#LongHairCurly-mask1')">
      <g transform="translate(-1)">
        <path id="Shadow" fill="#000" d="M105.985 27.764C114.013 26.627 122.796 26 132 26c10.358 0 20.183.794 29 2.216C183.451 38.75 199 61.56 199 88v17.044c-11.538-.371-25.169-14.28-32.55-34.245C156.312 72.835 144.547 74 132 74c-11.961 0-23.212-1.059-33.02-2.921-7.304 19.548-20.597 33.223-31.98 33.943V88c0-26.825 16.004-49.913 38.985-60.236" opacity=".16"/>
        <use id="Hair" fill="var(--avataaar-hair-color)" class="CustomColor" href="#LongHairCurly-path2" transform="translate(25 10)"/>
      </g>
    </g>
  </g>
</svg>
