<svg>
  <g id="Top">
    <defs>
      <path id="LongHairBob-path1" d="M0 0h264v280H0z"/>
      <path id="LongHairBob-path2" d="M38 79.36V111c0 22.34 13.08 41.623 32 50.611v13.135c-19.637 2.688-35.359 7.418-46.615 6.254C9.162 179.53 1.496 150.796 1 126 .383 95.164 29.319 30.795 40 18 47.923 8.509 69.695.55 94 1s46.862 5.812 55 16c12.324 15.428 37.869 74.079 38 109 .094 24.8-9.537 49.66-23 51-11.08 1.103-26.524-1.489-46-3.003v-12.386c18.92-8.988 32-28.272 32-50.611V82.988q-14.282-7.286-25.846-17.647 4.812 7.944 10.46 13.532-40.526-11.37-64.473-38.528Q58.169 65.042 38 79.36"/>
    </defs>
    <mask id="LongHairBob-mask1" fill="#fff">
      <use href="#LongHairBob-path1"/>
    </mask>
    <g id="Top/Long-Hair/Bob" mask="url('#LongHairBob-mask1')">
      <g transform="translate(-1)">
        <use id="Hair" fill="var(--avataaar-hair-color)" class="CustomColor" href="#LongHairBob-path2" transform="translate(39 19)"/>
      </g>
    </g>
  </g>
</svg>
