<svg>
  <g id="Top">
    <defs>
      <path id="LongHairStraight-path1" d="M0 0h264v280H0z"/>
      <path id="LongHairStraight-path2" d="M133.506 81.335A12 12 0 0 1 140 92v13c0 6.019-4.43 11.002-10.209 11.867-1.743 20.248-14.26 37.416-31.791 45.744V181h4c17.49 0 33.525 6.237 46 16.608V74c0-20.435-8.283-38.935-21.674-52.326S94.435 0 74 0C33.13 0 0 33.13 0 74v183.716c13.57-1.94 24-13.61 24-27.716v-45.577A72 72 0 0 1 46 181h4v-18.389a56.23 56.23 0 0 1-26-25.365v-61.98c9.147-2.975 18.778-7.249 28.342-12.77 15.403-8.894 28.09-19.555 36.724-30.099a87 87 0 0 0 7.044 15.488c8.768 15.186 21.114 26.349 33.89 32.032v.249q.6.1 1.18.26 1.162.484 2.326.91Z"/>
    </defs>
    <mask id="LongHairStraight-mask1" fill="#fff">
      <use href="#LongHairStraight-path1"/>
    </mask>
    <g id="Top/Long-Hair/Straight" mask="url('#LongHairStraight-mask1')">
      <g transform="translate(-1)">
        <use id="Hair" fill="var(--avataaar-hair-color)" class="CustomColor" href="#LongHairStraight-path2" transform="translate(59 18)"/>
        <path id="Shadow" fill="#000" d="M192.506 99.335c4.869 1.773 9.757 2.737 14.494 2.813V92c0-20.435-8.283-38.935-21.674-52.326C198.717 53.065 207 71.565 207 92v123.608C194.525 205.237 178.49 199 161 199h-4v-18.389c17.53-8.328 30.048-25.496 31.791-45.744C194.57 134.002 199 129.02 199 123v-13a12 12 0 0 0-6.494-10.665m-2.326-.91a12 12 0 0 0-1.18-.26v-.248q.59.262 1.18.509ZM83 155.246a56.23 56.23 0 0 0 26 25.366V199h-4c-7.673 0-15.065 1.2-22 3.423z" opacity=".24"/>
      </g>
    </g>
  </g>
</svg>
