<svg>
  <g id="Top">
    <defs>
      <path id="LongHairFroBand-path1" d="M0 0h264v280H0z"/>
      <path id="LongHairFroBand-path2" d="M80.02 73.81A55.9 55.9 0 0 0 77 92v6.166c-5.675.952-10 5.888-10 11.834v13c0 6.019 4.43 11.002 10.209 11.867 1.743 20.248 14.26 37.416 31.791 45.744v10.944A36.4 36.4 0 0 1 93.5 195a36.35 36.35 0 0 1-23.19-8.312 54 54 0 0 1-5.81.312c-21.094 0-39.337-12.208-48.049-29.945C8.934 151.924 4 143.288 4 133.5c0-2.115.23-4.175.667-6.159A57.9 57.9 0 0 1 1 107c0-12.756 4.118-24.55 11.097-34.127A29 29 0 0 1 12 70.5c0-11.297 6.573-21.06 16.104-25.67 8.433-18.128 26.454-30.894 47.546-31.78A28.4 28.4 0 0 1 95.5 5c2.327 0 4.589.279 6.754.805C111.776 2.058 122.148 0 133 0c10.346 0 20.255 1.87 29.408 5.292A29 29 0 0 1 166.5 5a28.4 28.4 0 0 1 19.85 8.05c21.092.886 39.113 13.652 47.546 31.78C243.426 49.44 250 59.203 250 70.5q0 1.2-.097 2.373C256.882 82.45 261 94.243 261 107a57.9 57.9 0 0 1-3.667 20.341A28.6 28.6 0 0 1 258 133.5c0 9.788-4.934 18.424-12.451 23.555C236.837 174.792 218.594 187 197.5 187a54 54 0 0 1-5.81-.312A36.35 36.35 0 0 1 168.5 195c-4.018 0-7.884-.65-11.5-1.849v-12.54c17.53-8.328 30.048-25.496 31.791-45.744C194.57 134.002 199 129.02 199 123v-13c0-5.946-4.325-10.882-10-11.834V92c0-5.441-.776-10.702-2.224-15.676l1.377 12.87-11.34-24-45.136-19.523-30.114 10.557L80.065 76.42l-.045-2.609Z"/>
    </defs>
    <mask id="LongHairFroBand-mask1" fill="#fff">
      <use href="#LongHairFroBand-path1"/>
    </mask>
    <g id="Top/Long-Hair/Fro-+-Band" mask="url('#LongHairFroBand-mask1')">
      <g transform="translate(-1)">
        <use fill="var(--avataaar-hair-color)" class="CustomColor" href="#LongHairFroBand-path2"/>
        <path id="Band" fill="#92D9FF" stroke="none" d="M76.631 98.975A48.6 48.6 0 0 1 76 91.152C76 62.35 101.296 39 132.5 39S189 62.35 189 91.152c0 2.659-.216 5.271-.631 7.823-4.09-25.092-27.545-44.33-55.869-44.33s-51.78 19.238-55.869 44.33"/>
      </g>
    </g>
  </g>
</svg>
