<svg>
  <g id="Top">
    <defs>
      <path id="ShortHairShaggyMullet-path1" d="M0 0h264v280H0z"/>
      <path id="ShortHairShaggyMullet-path2" d="M175.126 166.898c.715 2.24 1.749 4.333 3.43 5.788 1.62 1.404 4.512 1.06 6.543 1.117 1.672.048 3.346.053 5.016-.02.839-.036 1.213 1.015.534 1.499-.13.092-.26.18-.39.262a39.362 39.362 0 0 1-3.25 1.812c-2.524 1.258-5.188 2.244-7.982 2.734-1.916.337-3.816.4-5.654.177a9.828 9.828 0 0 0 1.699 1.94c1.73 1.501 4.816 1.133 6.983 1.194 1.784.052 3.57.057 5.353-.02.895-.039 1.295 1.084.57 1.601a8.08 8.08 0 0 1-.416.28 41.99 41.99 0 0 1-3.469 1.937c-2.693 1.345-5.536 2.398-8.518 2.922-5.5.966-10.87-.177-15.194-3.708a24.905 24.905 0 0 1-3.381-3.36v-2.442a56.187 56.187 0 0 0 18.126-13.713Zm-93.81-15.304a140.419 140.419 0 0 1-2.31 4.597c-4.795 9.11-10.764 20.602-22.507 21.405-1.088.075-1.519 1.347-.67 1.992 11.12 8.453 36.432 13.6 45.445 11.982a54.359 54.359 0 0 0 7.726-1.96v-8.999a56.208 56.208 0 0 1-27.685-29.017Zm114.59-82.914c.175 5.507-.617 11.227-1.721 16.616-.995 4.852-4.315 8.675-5.348 13.433-4.027-13.68-19.404-18.245-28.595-27.574 1.997 3.793 5.049 6.948 7.052 10.678-9.247-5.665-18.206-13.88-22.032-24.295-.707 5.398-2.716 10.39-6.108 14.666-3.011 3.796-7.582 7.87-12.295 9.34 2.428-5.507 4.502-11.217 6.407-16.925-2.016 2.617-8.697 13.734-10.375 16.49-1.656 2.72-3.513 5.317-5.507 7.803-.933 1.163-1.929 2.287-2.93 3.391a67.183 67.183 0 0 1-1.788 1.895c-.215.219-1.842 2.01-.912.806-2.216 2.802-5.478 4.979-8.31 7.109-2.853 2.144-5.96 3.968-9.192 5.476-7.159 3.343-14.512 4.56-22.32 3.163 1.196.299 3.721-.846 4.957-1.182 1.809-.492 3.474-1.117 5.113-2.024a53.85 53.85 0 0 0 9.176-6.418c-2.707 1.152-4.905 3.334-7.664 4.543-2.287 1.003-4.547 1.526-7.032 1.766-5.462.529-11.995-.72-16.721-3.587-5.492-3.333-8.542-9.051-9.99-15.137-1.68-7.067-.635-15.04 3.328-21.074.135 2.143 4.436 3.064 7.916 2.527 9.658-1.49 15.403-38.048 40.427-44.566 19.961-5.2 34.21 3.874 35.42 4.657 1.437.928 1.988.54 3.621.148 6.346-1.52 13.258-2.209 19.705-.927 6.34 1.262 12.418 4.546 17.559 8.378 9.527 7.101 17.762 18.582 18.159 30.824Z"/>
      <path id="ShortHairShaggyMullet-path3" d="M65.18 77.737c2.183-1.632 15.227-2.258 17.578-3.648.734-.434 1.303-.873 1.742-1.309.439.436 1.009.875 1.742 1.31 2.351 1.389 15.395 2.015 17.578 3.647 2.21 1.654 3.824 5.448 3.647 8.414-.212 3.56-4.106 12.052-13.795 13.03-2.114-2.353-5.435-3.87-9.172-3.87-3.737 0-7.058 1.517-9.172 3.87-9.69-.978-13.583-9.47-13.795-13.03-.176-2.966 1.437-6.76 3.647-8.414m.665 17.164.017.007-.017-.007m79.018-38.916c-.389-5.955-1.585-11.833-2.629-17.699-.281-1.579-1.81-12.286-2.5-12.286-.232 9.11-1.032 18.08-2.064 27.14-.309 2.708-.632 5.416-.845 8.134-.171 2.196.135 4.848-.397 6.972-.679 2.706-4.08 5.232-6.725 6.165-6.6 2.326-12.105-7.303-17.742-10.12-7.318-3.656-19.897-4.527-27.38.239-7.645-4.766-20.224-3.895-27.542-.239-5.637 2.817-11.142 12.446-17.742 10.12-2.645-.933-6.047-3.459-6.725-6.165-.532-2.124-.226-4.776-.397-6.972-.213-2.718-.536-5.426-.845-8.135C30.298 44.08 29.497 35.11 29.265 26c-.689 0-2.218 10.707-2.5 12.286-1.043 5.866-2.24 11.744-2.627 17.7-.4 6.119.077 12.181 1.332 18.177a165.44 165.44 0 0 0 2.049 8.541c.834 3.143-.32 9.262.053 12.488.707 6.104 3.582 18.008 6.811 23.259 1.561 2.538 3.39 4.123 5.433 6.168 1.967 1.97 2.788 5.021 4.91 7.118 3.956 3.908 9.72 6.234 15.64 6.806C65.677 143.05 74.506 146 84.5 146c9.995 0 18.823-2.95 24.135-7.457 5.919-.572 11.683-2.898 15.64-6.806 2.121-2.097 2.942-5.149 4.909-7.118 2.042-2.045 3.872-3.63 5.433-6.168 3.229-5.251 6.104-17.155 6.81-23.259.374-3.226-.78-9.345.054-12.488.75-2.828 1.45-5.676 2.05-8.54 1.254-5.997 1.73-12.06 1.332-18.179Z"/>
    </defs>
    <mask id="ShortHairShaggyMullet-mask1" fill="#fff">
      <use href="#ShortHairShaggyMullet-path1"/>
    </mask>
    <g id="Top/Short-Hair/Shaggy-Mullet" mask="url('#ShortHairShaggyMullet-mask1')">
      <g transform="translate(-1)">
        <mask id="ShortHairShaggyMullet-mask2" fill="#fff">
          <use href="#ShortHairShaggyMullet-path2"/>
        </mask>
        <use fill="var(--avataaar-hair-color)" class="CustomColor" href="#ShortHairShaggyMullet-path2"/>
        <path id="Shadow" fill="#000" stroke="none" d="M175.126 166.898c.715 2.24 1.749 4.333 3.43 5.788 1.62 1.404 4.512 1.06 6.543 1.117 1.672.048 3.346.053 5.016-.02.839-.036 1.213 1.015.534 1.499-.13.092-.26.18-.39.262a39.362 39.362 0 0 1-3.25 1.812c-2.524 1.258-5.188 2.244-7.982 2.734-1.916.337-3.816.4-5.654.177a9.828 9.828 0 0 0 1.699 1.94c1.73 1.501 4.816 1.133 6.983 1.194 1.784.052 3.57.057 5.353-.02.895-.039 1.295 1.084.57 1.601a8.08 8.08 0 0 1-.416.28 41.99 41.99 0 0 1-3.469 1.937c-2.693 1.345-5.536 2.398-8.518 2.922-5.5.966-10.87-.177-15.194-3.708a24.905 24.905 0 0 1-3.381-3.36v-2.442a56.187 56.187 0 0 0 18.126-13.713Zm-93.81-15.304a140.419 140.419 0 0 1-2.31 4.597c-4.795 9.11-10.764 20.602-22.507 21.405-1.088.075-1.519 1.347-.67 1.992 11.12 8.453 36.432 13.6 45.445 11.982a54.359 54.359 0 0 0 7.726-1.96v-8.999a56.208 56.208 0 0 1-27.685-29.017Z" opacity=".16"/>
      </g>
    </g>
  </g>
</svg>
