<svg>
  <g id="Top">
    <defs>
      <path id="ShortHairShaggy-path2" d="M0 0h264v280H0z"/>
      <path id="ShortHairShaggy-path1" d="M198.747 37.856c-5.14-3.832-11.219-7.116-17.56-8.378-6.446-1.282-10.358-1.593-16.704-.073-1.633.392-2.184.78-3.62-.148-1.212-.783-9.663-9.49-35.421-4.657-26.035 4.885-33.77 44.075-43.427 45.566-3.48.537-7.781-.384-7.916-2.527-3.963 6.034-5.008 14.007-3.327 21.074 1.447 6.086 4.497 11.804 9.989 15.137 4.726 2.867 11.26 4.116 16.72 3.587 2.486-.24 4.746-.763 7.033-1.766 2.759-1.21 4.957-3.39 7.664-4.543a53.85 53.85 0 0 1-9.176 6.418c-1.64.907-3.304 1.532-5.113 2.024-1.236.336-3.761 1.481-4.956 1.182 7.807 1.396 15.16.18 22.32-3.163 3.23-1.508 6.338-3.332 9.19-5.476 2.833-2.13 6.095-4.307 8.31-7.11-.93 1.204.698-.586.913-.805a67.183 67.183 0 0 0 1.787-1.895c1.002-1.104 1.998-2.228 2.93-3.391 1.995-2.486 3.852-5.082 5.508-7.803 1.678-2.756 8.359-13.873 10.375-16.49-1.905 5.708-3.98 11.418-6.407 16.925 4.713-1.47 9.284-5.544 12.295-9.34 3.392-4.276 5.4-9.268 6.108-14.666 3.826 10.416 12.785 18.63 22.032 24.295-2.003-3.73-5.055-6.885-7.052-10.678 9.191 9.329 24.568 13.893 28.595 27.574 1.033-4.758 4.353-8.58 5.348-13.433 1.104-5.389 1.896-11.11 1.72-16.616-.396-12.242-8.631-23.723-18.158-30.824Z"/>
      <filter id="filter1" width="101.5%" height="108%" x="-.8%" y="-2%" filterUnits="objectBoundingBox">
        <feOffset dy="2" in="SourceAlpha" result="shadowOffsetOuter1"/>
        <feColorMatrix in="shadowOffsetOuter1" result="shadowMatrixOuter1" values="0 0 0 0 0 0 0 0 0 0 0 0 0 0 0 0 0 0 0.16 0"/>
        <feMerge>
          <feMergeNode in="shadowMatrixOuter1"/>
          <feMergeNode in="SourceGraphic"/>
        </feMerge>
      </filter>
    </defs>
    <mask id="ShortHairShaggy-mask2" fill="#fff">
      <use href="#ShortHairShaggy-path2"/>
    </mask>
    <g id="Top/Short-Hair/Shaggy" mask="url('#ShortHairShaggy-mask2')">
      <g transform="translate(-1)">
        <mask id="ShortHairShaggy-mask1" fill="#fff">
          <use href="#ShortHairShaggy-path1" transform="scale(-1 1)"/>
        </mask>
        <use fill="var(--avataaar-hair-color)" class="CustomColor" href="#ShortHairShaggy-path1" transform="matrix(-1 0 0 1 286.93 0)"/>
      </g>
    </g>
  </g>
</svg>
