<svg>
  <g id="Top">
    <defs>
      <path id="ShortHairTheCaesarSidePart-path1" d="M0 0h264v280H0z"/>
      <path id="ShortHairTheCaesarSidePart-path2" d="M82.018 24.378c-7.032-.693-15.36-1.127-23.705-1.132C39.008 23.232 19.618 25.483 16 28 6.296 35.248 2.537 62.446 3 64c-.327 1.223-1.653 1.488-2 0C.28 53.702 1 1.726 58 1c57-.726 57.72 52.702 57 63-.347 1.488-1.673 1.223-2 0 .463-1.554-3.296-28.752-13-36-1.76-1.224-7.247-2.39-14.641-3.261L89 16l-6.982 8.378Z"/>
      <filter id="filter1" width="101.5%" height="108%" x="-.8%" y="-2%" filterUnits="objectBoundingBox">
        <feOffset dy="2" in="SourceAlpha" result="shadowOffsetOuter1"/>
        <feColorMatrix in="shadowOffsetOuter1" result="shadowMatrixOuter1" values="0 0 0 0 0 0 0 0 0 0 0 0 0 0 0 0 0 0 0.16 0"/>
        <feMerge>
          <feMergeNode in="shadowMatrixOuter1"/>
          <feMergeNode in="SourceGraphic"/>
        </feMerge>
      </filter>
    </defs>
    <mask id="ShortHairTheCaesarSidePart-mask1" fill="#fff">
      <use href="#ShortHairTheCaesarSidePart-path1"/>
    </mask>
    <g id="Top/Short-Hair/The-Caesar-+-Side-Part" mask="url('#ShortHairTheCaesarSidePart-mask1')">
      <g transform="translate(-1)">
        <g id="Hair" transform="translate(75 34)">
          <mask id="ShortHairTheCaesarSidePart-mask2" fill="#fff">
            <use href="#ShortHairTheCaesarSidePart-path2"/>
          </mask>
          <use fill="var(--avataaar-hair-color)" class="CustomColor" href="#ShortHairTheCaesarSidePart-path2"/>
        </g>
      </g>
    </g>
  </g>
</svg>
