<svg>
  <g id="Top">
    <defs>
      <path id="ShortHairShortRound-path2" d="M0 0h264v280H0z"/>
      <path id="ShortHairShortRound-path1" d="M167.309 35.006c-20.188-11.7-40.18-9.784-55.272-5.976-15.092 3.808-24.02 14.621-31.68 30.618-3.761 7.855-5.991 17.143-6.334 25.833-.135 3.412.325 6.934 1.245 10.22.337 1.205 2.155 5.386 2.654 2.008.167-1.125-.442-2.676-.5-3.871-.078-1.569.005-3.157.112-4.723.2-2.928.722-5.8 1.65-8.59 1.328-3.988 3.017-8.312 5.603-11.677 6.401-8.327 17.482-8.802 26.28-13.384-.764 1.405-3.707 3.68-2.688 5.263.705 1.094 3.37.762 4.643.727 3.349-.092 6.713-.674 10.02-1.147 5.214-.745 10.099-2.255 15.005-4.089 4.016-1.502 8.603-2.892 11.622-6.078 4.87 5.048 11.14 9.795 17.401 13.003 5.618 2.88 14.679 4.318 18.113 10.158 4.065 6.914 2.195 15.406 3.436 22.9.472 2.85 1.545 2.786 2.132.237.997-4.33 1.468-8.828 1.151-13.279-.718-10.048-4.405-36.453-24.593-48.153Z"/>
      <filter id="filter1" width="101.5%" height="108%" x="-.8%" y="-2%" filterUnits="objectBoundingBox">
        <feOffset dy="2" in="SourceAlpha" result="shadowOffsetOuter1"/>
        <feColorMatrix in="shadowOffsetOuter1" result="shadowMatrixOuter1" values="0 0 0 0 0 0 0 0 0 0 0 0 0 0 0 0 0 0 0.16 0"/>
        <feMerge>
          <feMergeNode in="shadowMatrixOuter1"/>
          <feMergeNode in="SourceGraphic"/>
        </feMerge>
      </filter>
    </defs>
    <mask id="ShortHairShortRound-mask2" fill="#fff">
      <use href="#ShortHairShortRound-path2"/>
    </mask>
    <g id="Top/Short-Hair/Short-Round" mask="url('#ShortHairShortRound-mask2')">
      <g transform="translate(-1)">
        <mask id="ShortHairShortRound-mask1" fill="#fff">
          <use href="#ShortHairShortRound-path1"/>
        </mask>
        <use fill="var(--avataaar-hair-color)" class="CustomColor" href="#ShortHairShortRound-path1"/>
      </g>
    </g>
  </g>
</svg>
