<svg>
  <g id="Top">
    <defs>
      <path id="WinterHat4-path5" d="M0 0h264v280H0z"/>
      <path id="WinterHat4-path1" d="M129.66 38.357A60.8 60.8 0 0 1 134 61v8H2v-8c0-8.025 1.55-15.688 4.366-22.707Q-3.238 18.099 2.636 5.12q11.257-3.414 26.08 5.419C38.486 3.888 50.289 0 63 0h10c12.722 0 24.535 3.895 34.31 10.557q14.84-8.856 26.11-5.437 5.883 12.999-3.76 33.237"/>
      <path id="WinterHat4-path2" d="M28.716 10.539c-9.957 6.778-17.804 16.426-22.35 27.754Q-3.238 18.099 2.636 5.12q11.257-3.414 26.08 5.419m100.943 27.818c-4.538-11.346-12.386-21.01-22.349-27.8q14.84-8.856 26.11-5.437 5.883 12.999-3.76 33.237Z"/>
      <path id="WinterHat4-path3" d="M21.862 15.96a61.3 61.3 0 0 0-11.433 14.08Q6.041 17.878 8.927 13.208q3.977-1.72 12.935 2.751Zm103.49 13.714a61.3 61.3 0 0 0-11.274-13.77q8.704-4.278 12.608-2.59 2.83 4.58-1.333 16.36Z"/>
      <path id="WinterHat4-path4" d="M67.285 61.451Q91.202 44 133.073 44q41.869 0 65.659 17.45A8 8 0 0 1 202 67.9v30.47a4 4 0 0 1-6.135 3.383Q170.902 85.999 133.805 86q-37.383 0-63.73 15.994A4 4 0 0 1 64 98.575V67.914a8 8 0 0 1 3.285-6.463"/>
    </defs>
    <g id="Top/Accessories/Winter-Hat-4" transform="translate(-1)">
      <g id="hat" transform="translate(65 4)">
        <use fill="var(--avataaar-top-color)" class="CustomColor" href="#WinterHat4-path1"/>
        <use id="shadow" fill="#000" href="#WinterHat4-path2" opacity=".24"/>
        <use id="light" fill="#FFF" href="#WinterHat4-path3" opacity=".3"/>
      </g>
      <g id="hat-front">
        <use filter="url('#WinterHat4-path4')" href="#WinterHat4-path4"/>
        <use fill="#F4F4F4" href="#WinterHat4-path4"/>
      </g>
    </g>
  </g>
</svg>
