<svg>
  <g id="Top">
    <defs>
      <path id="WinterHat2-path3" d="M0 0h264v280H0z"/>
      <path id="WinterHat2-path1" d="M72 21c54.773 0 72 47.803 72 82.045v73.865c0 19.495-22.633 19.537-22.633-10.921V86.535c0-6.075-3.732-9-9.816-9H32.45c-6.084 0-9.816 2.925-9.816 9v79.454C22.633 196.447 0 196.405 0 176.91v-73.865C0 68.803 17.227 21 72 21Z"/>
      <path id="WinterHat2-path2" d="M101.428 98.169c-2.513 2.294-5.19 3.325-8.575 2.604-.582-.124-2.957-4.538-8.853-4.538-5.897 0-8.27 4.414-8.853 4.538-3.385.721-6.062-.31-8.576-2.604-4.725-4.313-8.654-10.26-6.293-16.75 1.23-3.382 3.232-7.095 6.873-8.173 3.887-1.15 9.346-.002 13.264-.788 1.27-.254 2.656-.707 3.585-1.458.929.75 2.316 1.204 3.585 1.458 3.918.786 9.376-.362 13.264.788 3.64 1.078 5.642 4.79 6.873 8.173 2.361 6.49-1.568 12.437-6.294 16.75M140.081 26c-3.41 8.4-2.093 18.858-2.724 27.676-.513 7.167-2.02 17.91-8.384 22.539-3.255 2.367-9.179 6.345-13.431 5.235-2.927-.764-3.24-9.16-7.087-12.303-4.363-3.565-9.812-5.131-15.306-4.89-2.37.105-7.165.08-9.15 1.903-1.983-1.823-6.777-1.798-9.148-1.902-5.494-.242-10.943 1.324-15.306 4.889-3.847 3.143-4.16 11.54-7.087 12.303-4.252 1.11-10.176-2.868-13.431-5.235-6.365-4.63-7.87-15.372-8.384-22.54-.63-8.817.686-19.275-2.724-27.675-1.66 0-.565 16.129-.565 16.129v20.356c.032 15.288 9.581 38.17 30.754 46.908C63.286 111.53 75.015 115 84 115s20.714-3.14 25.892-5.277c21.173-8.737 30.722-31.95 30.754-47.238V42.13S141.74 26 140.081 26"/>
    </defs>
    <mask id="WinterHat2-mask1" fill="#fff">
      <use href="#WinterHat2-path3"/>
    </mask>
    <g id="Top/Accessories/Winter-Hat-2" transform="translate(-1)">
      <g id="hat" transform="translate(61)">
        <g id="string" fill="#F4F4F4" transform="translate(0 176)">
          <circle id="puff" cx="9" cy="65" r="9"/>
          <path d="M8 0h2v58H8z"/>
        </g>
        <g id="string" fill="#F4F4F4" transform="translate(126 168)">
          <circle id="puff" cx="9" cy="65" r="9"/>
          <path d="M8 0h2v58H8z"/>
        </g>
        <circle id="puff" cx="72" cy="20" r="20" fill="#F4F4F4"/>
        <mask id="WinterHat2-mask2" fill="#fff">
          <use href="#WinterHat2-path1"/>
        </mask>
        <use fill="var(--avataaar-top-color)" class="CustomColor" href="#WinterHat2-path1"/>
        <path id="color-dark" fill="#000" d="M-1 21h146v46H-1z" mask="url('#WinterHat2-mask2')" opacity=".2"/>
        <g id="light-triangles" fill="#FFF" opacity=".5" transform="translate(29 32)">
          <path id="Triangle" d="M12.5 0 25 18H0z" transform="rotate(180 12.5 9)"/>
          <path id="Triangle" d="M43.5 0 56 18H31z" transform="rotate(180 43.5 9)"/>
          <path id="Triangle" d="M74.5 0 87 18H62z" transform="rotate(180 74.5 9)"/>
        </g>
        <g id="dark-triangles" fill="#000" opacity=".5" transform="translate(13 41)">
          <path id="Triangle" d="M12.5 0 25 18H0zm31 0L56 18H31zm31 0L87 18H62zm31 0L118 18H93z"/>
        </g>
      </g>
    </g>
  </g>
</svg>
